<svg width="74" height="39" viewBox="0 0 74 39" fill="none" xmlns="http://www.w3.org/2000/svg">
<g clip-path="url(#clip0_36_369)">
<path d="M10.6791 33.8251H62.9267V30.753C62.9267 30.1115 62.134 29.4799 60.7519 29.0204L60.7377 29.0156C59.8045 28.6944 53.839 26.4092 50.6123 26.4783C48.9078 26.5147 47.4485 26.7965 46.275 27.3159C42.6223 28.9332 37.8241 29.5306 35.2891 29.0613C33.055 28.6476 26.9218 27.9634 24.6557 27.9943C21.4819 28.0369 21.4726 28.554 18.2148 30.2231C16.9705 30.8601 16.5051 30.94 10.6791 31.4481V33.8251Z" fill="#F2F2F2"/>
<path d="M2.2559 29.3098C2.14213 27.6617 2.85949 25.9968 4.34591 25.385C4.04543 27.0831 4.41565 28.97 5.37026 30.6059C5.74207 31.243 6.21956 31.9233 6.11794 32.589C6.05471 33.0033 5.76579 33.3321 5.41275 33.5462C5.05968 33.7604 4.64366 33.8747 4.23271 33.9869L4.16176 34.0596C3.18508 32.5842 2.36967 30.958 2.2559 29.3098Z" fill="#F2F2F2"/>
<path d="M4.36875 25.415C3.63091 26.522 3.30309 27.8413 3.43957 29.1545C3.46214 29.4545 3.53109 29.7494 3.64407 30.0293C3.76764 30.3097 3.95715 30.5579 4.1973 30.7538C4.41958 30.9424 4.6662 31.1134 4.84419 31.3449C4.93204 31.4579 4.99561 31.587 5.03109 31.7244C5.06657 31.8619 5.07323 32.0049 5.05068 32.1449C4.99879 32.4767 4.82254 32.7538 4.63947 33.0176C4.43621 33.3105 4.21978 33.6109 4.1829 33.9877C4.17843 34.0334 4.10354 34.014 4.108 33.9684C4.17216 33.3128 4.73953 32.9142 4.93022 32.3172C4.98208 32.1729 4.99976 32.0191 4.98195 31.8673C4.96414 31.7154 4.9113 31.5695 4.82737 31.4404C4.66152 31.1955 4.40733 31.019 4.18081 30.8296C3.94364 30.6408 3.75073 30.4047 3.61508 30.1372C3.48833 29.862 3.40801 29.5687 3.37722 29.2685C3.3003 28.6214 3.33182 27.9663 3.47055 27.329C3.61894 26.6276 3.90351 25.9603 4.30897 25.3629C4.33384 25.3265 4.39346 25.3789 4.36875 25.415V25.415Z" fill="white"/>
<path d="M3.374 28.7133C3.12926 28.6666 2.90554 28.5468 2.73396 28.3704C2.56239 28.194 2.4515 27.9699 2.41672 27.7293C2.41134 27.6824 2.48613 27.6823 2.49152 27.7292C2.52352 27.9533 2.62679 28.162 2.78683 28.3259C2.94686 28.4899 3.1556 28.6008 3.3837 28.6431C3.38848 28.6437 3.39311 28.6452 3.39731 28.6475C3.4015 28.6498 3.40518 28.6529 3.40814 28.6566C3.41109 28.6603 3.41325 28.6646 3.41451 28.6691C3.41576 28.6736 3.41607 28.6784 3.41543 28.683C3.41479 28.6877 3.4132 28.6922 3.41076 28.6962C3.40833 28.7003 3.40509 28.7038 3.40123 28.7066C3.39738 28.7095 3.39298 28.7115 3.38831 28.7127C3.38364 28.7138 3.37877 28.714 3.374 28.7133Z" fill="white"/>
<path d="M4.07284 30.6708C4.25547 30.5382 4.4072 30.3694 4.51806 30.1756C4.62892 29.9817 4.69638 29.7672 4.71602 29.546C4.72066 29.5004 4.79555 29.5198 4.79092 29.5654C4.77001 29.7954 4.69931 30.0185 4.58349 30.2199C4.46766 30.4214 4.30934 30.5967 4.11895 30.7342C4.08252 30.7601 4.03662 30.6967 4.07284 30.6708Z" fill="white"/>
<path d="M3.70587 26.6818C3.79123 26.7175 3.88454 26.7314 3.97696 26.7222C4.06938 26.7129 4.15784 26.6808 4.23395 26.6289C4.26994 26.6024 4.31582 26.6659 4.28005 26.6922C4.19573 26.7492 4.09803 26.7845 3.99598 26.795C3.89393 26.8054 3.79082 26.7907 3.69618 26.752C3.68636 26.7492 3.67779 26.7433 3.67187 26.7352C3.66595 26.727 3.66303 26.7172 3.66358 26.7073C3.66427 26.7027 3.66598 26.6983 3.66858 26.6945C3.67118 26.6906 3.67462 26.6874 3.67865 26.6849C3.68268 26.6825 3.6872 26.681 3.6919 26.6804C3.69661 26.6799 3.70137 26.6804 3.70587 26.6818H3.70587Z" fill="white"/>
<path d="M9.76916 28.0702C9.74729 28.0874 9.72541 28.1046 9.70363 28.1224C9.41141 28.3549 9.14212 28.6135 8.89926 28.8949C8.88009 28.9163 8.86104 28.9384 8.84263 28.9603C8.26162 29.6539 7.83633 30.4586 7.59427 31.3226C7.49499 31.6749 7.42531 32.0345 7.38592 32.3978C7.33061 32.9046 7.31342 33.4639 7.09021 33.8872C7.06758 33.9315 7.04178 33.9742 7.01299 34.015L4.27227 34.1507C4.26544 34.1479 4.25869 34.1458 4.25184 34.143L4.14337 34.1534C4.14404 34.1341 4.14516 34.1142 4.14582 34.095C4.14616 34.0838 4.14711 34.0726 4.14744 34.0614C4.14786 34.054 4.14831 34.0465 4.14824 34.0397C4.14836 34.0372 4.14852 34.0347 4.14877 34.0328C4.1487 34.026 4.14939 34.0198 4.14944 34.0136C4.1554 33.9023 4.16196 33.791 4.16981 33.6797C4.16969 33.6791 4.16969 33.6791 4.17018 33.6784C4.21729 32.8412 4.37313 32.0133 4.63397 31.2143C4.64203 31.191 4.64994 31.1671 4.65926 31.1437C4.78091 30.7974 4.93487 30.4628 5.11919 30.1439C5.21991 29.9714 5.33077 29.8047 5.45123 29.6446C5.76314 29.2323 6.14891 28.8785 6.58994 28.6001C7.0401 28.3077 7.54677 28.108 8.07887 28.0133C8.61096 27.9187 9.15728 27.931 9.68432 28.0496C9.71276 28.0562 9.74061 28.0629 9.76916 28.0702Z" fill="#F2F2F2"/>
<path d="M9.76972 28.1047C8.48502 28.4197 7.35856 29.1732 6.59453 30.2287C6.42681 30.4534 6.30135 30.7054 6.224 30.973C6.1566 31.2511 6.1676 31.5419 6.25585 31.8144C6.33316 32.0794 6.44309 32.346 6.45432 32.6156C6.46049 32.7475 6.43456 32.879 6.37865 32.9993C6.32273 33.1196 6.23843 33.2252 6.13262 33.3077C5.87786 33.514 5.54782 33.6084 5.22015 33.6893C4.85632 33.7792 4.47612 33.8667 4.20626 34.114C4.17356 34.144 4.1197 34.0862 4.15234 34.0563C4.62185 33.626 5.37355 33.6742 5.91784 33.36C6.17182 33.2133 6.37033 32.9849 6.37936 32.6739C6.38726 32.4018 6.27414 32.1268 6.19352 31.8589C6.10371 31.5927 6.08207 31.3092 6.13047 31.033C6.1924 30.7612 6.30686 30.5035 6.4677 30.2735C6.81656 29.7573 7.25833 29.3069 7.77165 28.944C8.3658 28.5206 9.03712 28.2112 9.7498 28.0325C9.79467 28.0211 9.8143 28.0934 9.76972 28.1047H9.76972Z" fill="white"/>
<path d="M6.81412 29.8749C6.43291 29.5236 6.33753 28.9826 6.58906 28.6112C6.61384 28.5746 6.67995 28.6184 6.65514 28.655C6.4195 29.0029 6.5106 29.502 6.86696 29.8304C6.90446 29.865 6.85141 29.9092 6.81412 29.8749Z" fill="white"/>
<path d="M6.19887 31.6825C6.43024 31.6995 6.66275 31.6706 6.8823 31.5974C7.10185 31.5243 7.30384 31.4084 7.47603 31.2569C7.50889 31.227 7.56282 31.2848 7.53 31.3146C7.35042 31.4719 7.1399 31.5921 6.91121 31.6677C6.68253 31.7434 6.44045 31.773 6.19967 31.7547C6.15113 31.7519 6.1506 31.6797 6.19887 31.6825Z" fill="white"/>
<path d="M8.38736 28.6202C8.44503 28.6985 8.51972 28.7635 8.6061 28.8105C8.69248 28.8575 8.78844 28.8853 8.88713 28.892C8.93559 28.8943 8.93608 28.9665 8.88793 28.9643C8.77891 28.9564 8.67295 28.9255 8.57739 28.8738C8.48183 28.822 8.39897 28.7507 8.33453 28.6646C8.32767 28.6578 8.32378 28.6487 8.32367 28.6392C8.32357 28.6297 8.32726 28.6205 8.33397 28.6135C8.34205 28.6078 8.35209 28.6053 8.36202 28.6065C8.37195 28.6077 8.38101 28.6126 8.38736 28.6202Z" fill="white"/>
<path d="M70.8743 29.3098C70.988 27.6617 70.2707 25.9968 68.7843 25.385C69.0847 27.0831 68.7145 28.97 67.7599 30.6059C67.3881 31.243 66.9106 31.9233 67.0122 32.589C67.0754 33.0033 67.3644 33.3321 67.7174 33.5462C68.0705 33.7604 68.4865 33.8747 68.8975 33.9869L68.9684 34.0596C69.9451 32.5842 70.7605 30.958 70.8743 29.3098Z" fill="#F2F2F2"/>
<path d="M68.7631 25.415C69.501 26.522 69.8288 27.8413 69.6923 29.1545C69.6697 29.4545 69.6008 29.7494 69.4878 30.0293C69.3642 30.3097 69.1747 30.5579 68.9346 30.7538C68.7123 30.9424 68.4657 31.1134 68.2877 31.3449C68.1998 31.4579 68.1363 31.587 68.1008 31.7244C68.0653 31.8619 68.0586 32.0049 68.0812 32.1449C68.1331 32.4767 68.3093 32.7538 68.4924 33.0176C68.6957 33.3105 68.9121 33.6109 68.949 33.9877C68.9534 34.0334 69.0283 34.014 69.0239 33.9684C68.9597 33.3128 68.3924 32.9142 68.2017 32.3172C68.1498 32.1729 68.1321 32.0191 68.1499 31.8673C68.1677 31.7154 68.2206 31.5695 68.3045 31.4404C68.4704 31.1955 68.7245 31.019 68.9511 30.8296C69.1882 30.6408 69.3811 30.4047 69.5168 30.1372C69.6435 29.862 69.7239 29.5687 69.7547 29.2685C69.8316 28.6214 69.8001 27.9663 69.6613 27.329C69.5129 26.6276 69.2284 25.9603 68.8229 25.3629C68.798 25.3265 68.7384 25.3789 68.7631 25.415V25.415Z" fill="white"/>
<path d="M69.7572 28.7133C70.002 28.6666 70.2257 28.5468 70.3972 28.3704C70.5688 28.194 70.6797 27.9699 70.7145 27.7293C70.7199 27.6824 70.6451 27.6823 70.6397 27.7292C70.6077 27.9533 70.5044 28.162 70.3444 28.3259C70.1843 28.4899 69.9756 28.6008 69.7475 28.6431C69.7427 28.6437 69.7381 28.6452 69.7339 28.6475C69.7297 28.6498 69.726 28.6529 69.7231 28.6566C69.7201 28.6603 69.718 28.6646 69.7167 28.6691C69.7154 28.6736 69.7151 28.6784 69.7158 28.683C69.7164 28.6877 69.718 28.6922 69.7204 28.6962C69.7229 28.7003 69.7261 28.7038 69.73 28.7066C69.7338 28.7095 69.7382 28.7115 69.7429 28.7127C69.7476 28.7138 69.7524 28.714 69.7572 28.7133Z" fill="white"/>
<path d="M69.0581 30.6708C68.8754 30.5382 68.7237 30.3694 68.6128 30.1756C68.502 29.9817 68.4345 29.7672 68.4149 29.546C68.4102 29.5004 68.3354 29.5198 68.34 29.5654C68.3609 29.7954 68.4316 30.0185 68.5474 30.2199C68.6632 30.4214 68.8216 30.5967 69.012 30.7342C69.0484 30.7601 69.0943 30.6967 69.0581 30.6708Z" fill="white"/>
<path d="M69.425 26.6818C69.3396 26.7175 69.2463 26.7314 69.1539 26.7222C69.0615 26.7129 68.973 26.6808 68.8969 26.6289C68.8609 26.6024 68.815 26.6659 68.8508 26.6922C68.9351 26.7492 69.0328 26.7845 69.1349 26.795C69.2369 26.8054 69.34 26.7907 69.4347 26.752C69.4445 26.7492 69.453 26.7433 69.459 26.7352C69.4649 26.727 69.4678 26.7172 69.4673 26.7073C69.4666 26.7027 69.4649 26.6983 69.4623 26.6945C69.4597 26.6906 69.4562 26.6874 69.4522 26.6849C69.4482 26.6825 69.4436 26.681 69.4389 26.6804C69.4342 26.6799 69.4295 26.6804 69.425 26.6818H69.425Z" fill="white"/>
<path d="M63.3611 28.0702C63.383 28.0874 63.4048 28.1046 63.4266 28.1224C63.7188 28.3549 63.9881 28.6135 64.231 28.8949C64.2502 28.9163 64.2692 28.9384 64.2876 28.9603C64.8686 29.6539 65.2939 30.4586 65.536 31.3226C65.6353 31.6749 65.7049 32.0345 65.7443 32.3979C65.7996 32.9046 65.8168 33.4639 66.04 33.8872C66.0627 33.9315 66.0885 33.9742 66.1173 34.015L68.858 34.1507C68.8648 34.1479 68.8716 34.1458 68.8784 34.143L68.9869 34.1534C68.9862 34.1341 68.9851 34.1142 68.9844 34.095C68.9841 34.0838 68.9831 34.0726 68.9828 34.0614C68.9824 34.054 68.9819 34.0465 68.982 34.0397C68.9819 34.0372 68.9817 34.0347 68.9815 34.0328C68.9815 34.026 68.9809 34.0198 68.9808 34.0136C68.9749 33.9023 68.9683 33.791 68.9604 33.6797C68.9606 33.6791 68.9606 33.6791 68.9601 33.6784C68.913 32.8413 68.7571 32.0133 68.4963 31.2143C68.4882 31.191 68.4803 31.1671 68.471 31.1437C68.3493 30.7974 68.1954 30.4628 68.0111 30.1439C67.9103 29.9714 67.7995 29.8047 67.679 29.6446C67.3671 29.2323 66.9813 28.8785 66.5403 28.6001C66.0901 28.3077 65.5835 28.108 65.0514 28.0133C64.5193 27.9186 63.973 27.931 63.4459 28.0496C63.4175 28.0562 63.3896 28.0629 63.3611 28.0702Z" fill="#F2F2F2"/>
<path d="M63.3606 28.1047C64.6453 28.4197 65.7717 29.1732 66.5357 30.2287C66.7035 30.4534 66.8289 30.7054 66.9063 30.973C66.9737 31.2511 66.9627 31.5419 66.8744 31.8144C66.7971 32.0794 66.6872 32.346 66.676 32.6156C66.6698 32.7475 66.6957 32.879 66.7516 32.9993C66.8075 33.1196 66.8919 33.2252 66.9977 33.3077C67.2524 33.514 67.5825 33.6084 67.9101 33.6893C68.274 33.7792 68.6542 33.8667 68.924 34.114C68.9567 34.144 69.0106 34.0862 68.9779 34.0563C68.5084 33.626 67.7567 33.6742 67.2124 33.36C66.9585 33.2133 66.76 32.9849 66.7509 32.6739C66.743 32.4018 66.8561 32.1268 66.9368 31.8589C67.0266 31.5927 67.0482 31.3092 66.9998 31.033C66.9379 30.7612 66.8234 30.5035 66.6626 30.2735C66.3137 29.7573 65.872 29.3069 65.3586 28.944C64.7645 28.5206 64.0932 28.2112 63.3805 28.0325C63.3356 28.0211 63.316 28.0934 63.3606 28.1047Z" fill="white"/>
<path d="M66.3166 29.8749C66.6978 29.5236 66.7932 28.9826 66.5416 28.6112C66.5169 28.5746 66.4507 28.6184 66.4756 28.655C66.7112 29.0029 66.6201 29.502 66.2637 29.8304C66.2262 29.865 66.2793 29.9092 66.3166 29.8749Z" fill="white"/>
<path d="M66.9327 31.6825C66.7013 31.6995 66.4688 31.6706 66.2492 31.5974C66.0297 31.5243 65.8277 31.4084 65.6555 31.2569C65.6226 31.227 65.5687 31.2848 65.6015 31.3146C65.7811 31.4719 65.9916 31.5921 66.2203 31.6677C66.449 31.7434 66.6911 31.773 66.9318 31.7547C66.9804 31.7519 66.9809 31.6797 66.9327 31.6825Z" fill="white"/>
<path d="M64.7434 28.6202C64.6858 28.6985 64.6111 28.7635 64.5247 28.8105C64.4383 28.8575 64.3424 28.8853 64.2437 28.892C64.1952 28.8943 64.1947 28.9665 64.2429 28.9643C64.3519 28.9564 64.4578 28.9255 64.5534 28.8738C64.649 28.822 64.7318 28.7507 64.7963 28.6646C64.8031 28.6578 64.807 28.6487 64.8071 28.6392C64.8072 28.6297 64.8035 28.6205 64.7968 28.6135C64.7887 28.6078 64.7787 28.6053 64.7688 28.6065C64.7588 28.6077 64.7498 28.6126 64.7434 28.6202Z" fill="white"/>
<path d="M4.68626 21.1504H4.18341V21.3137H4.68626V21.1504Z" fill="#E6E6E6"/>
<path d="M67.9133 21.3137H66.8935V21.1504H67.9133V21.3137ZM65.8737 21.3137H64.8539V21.1504H65.8737V21.3137ZM63.8341 21.3137H62.8143V21.1504H63.8341V21.3137ZM61.7945 21.3137H60.7747V21.1504H61.7945V21.3137ZM59.7549 21.3137H58.7351V21.1504H59.7549V21.3137ZM57.7153 21.3137H56.6955V21.1504H57.7153V21.3137ZM55.6757 21.3137H54.656V21.1504H55.6757V21.3137ZM53.6362 21.3137H52.6164V21.1504H53.6362L53.6362 21.3137ZM51.5965 21.3137H50.5768V21.1504H51.5965V21.3137ZM49.557 21.3137H48.5372V21.1504H49.557V21.3137ZM47.5174 21.3137H46.4976V21.1504H47.5174V21.3137ZM45.4778 21.3137H44.458V21.1504H45.4778V21.3137ZM43.4382 21.3137H42.4184V21.1504H43.4382V21.3137ZM41.3986 21.3137H40.3788V21.1504H41.3986V21.3137ZM39.359 21.3137H38.3392V21.1504H39.359V21.3137ZM37.3194 21.3137H36.2996V21.1504H37.3194V21.3137ZM35.2798 21.3137H34.26V21.1504H35.2798V21.3137ZM33.2402 21.3137H32.2204V21.1504H33.2402V21.3137ZM31.2006 21.3137H30.1808V21.1504H31.2006V21.3137ZM29.161 21.3137H28.1412V21.1504H29.161V21.3137ZM27.1214 21.3137H26.1016V21.1504H27.1214V21.3137ZM25.0818 21.3137H24.062V21.1504H25.0818V21.3137ZM23.0422 21.3137H22.0224V21.1504H23.0422V21.3137ZM21.0026 21.3137H19.9828V21.1504H21.0026L21.0026 21.3137ZM18.963 21.3137H17.9432V21.1504H18.963V21.3137ZM16.9234 21.3137H15.9036V21.1504H16.9234V21.3137ZM14.8838 21.3137H13.864V21.1504H14.8838V21.3137ZM12.8442 21.3137H11.8244V21.1504H12.8442V21.3137ZM10.8046 21.3137H9.78481V21.1504H10.8046V21.3137ZM8.765 21.3137H7.74524V21.1504H8.765V21.3137ZM6.72543 21.3137H5.70563V21.1504H6.72543V21.3137Z" fill="#E6E6E6"/>
<path d="M69.436 21.1504H68.9331V21.3137H69.436V21.1504Z" fill="#E6E6E6"/>
<path d="M4.68626 20.0071H4.18341V20.1704H4.68626V20.0071Z" fill="#E6E6E6"/>
<path d="M67.9133 20.1704H66.8935V20.0071H67.9133V20.1704ZM65.8737 20.1704H64.8539V20.0071H65.8737V20.1704ZM63.8341 20.1704H62.8143V20.0071H63.8341V20.1704ZM61.7945 20.1704H60.7747V20.0071H61.7945V20.1704ZM59.7549 20.1704H58.7351V20.0071H59.7549V20.1704ZM57.7153 20.1704H56.6955V20.0071H57.7153V20.1704ZM55.6757 20.1704H54.656V20.0071H55.6757V20.1704ZM53.6362 20.1704H52.6164V20.0071H53.6362L53.6362 20.1704ZM51.5965 20.1704H50.5768V20.0071H51.5965V20.1704ZM49.557 20.1704H48.5372V20.0071H49.557V20.1704ZM47.5174 20.1704H46.4976V20.0071H47.5174V20.1704ZM45.4778 20.1704H44.458V20.0071H45.4778V20.1704ZM43.4382 20.1704H42.4184V20.0071H43.4382V20.1704ZM41.3986 20.1704H40.3788V20.0071H41.3986V20.1704ZM39.359 20.1704H38.3392V20.0071H39.359V20.1704ZM37.3194 20.1704H36.2996V20.0071H37.3194V20.1704ZM35.2798 20.1704H34.26V20.0071H35.2798V20.1704ZM33.2402 20.1704H32.2204V20.0071H33.2402V20.1704ZM31.2006 20.1704H30.1808V20.0071H31.2006V20.1704ZM29.161 20.1704H28.1412V20.0071H29.161V20.1704ZM27.1214 20.1704H26.1016V20.0071H27.1214V20.1704ZM25.0818 20.1704H24.062V20.0071H25.0818V20.1704ZM23.0422 20.1704H22.0224V20.0071H23.0422V20.1704ZM21.0026 20.1704H19.9828V20.0071H21.0026L21.0026 20.1704ZM18.963 20.1704H17.9432V20.0071H18.963V20.1704ZM16.9234 20.1704H15.9036V20.0071H16.9234V20.1704ZM14.8838 20.1704H13.864V20.0071H14.8838V20.1704ZM12.8442 20.1704H11.8244V20.0071H12.8442V20.1704ZM10.8046 20.1704H9.78481V20.0071H10.8046V20.1704ZM8.765 20.1704H7.74524V20.0071H8.765V20.1704ZM6.72543 20.1704H5.70563V20.0071H6.72543V20.1704Z" fill="#E6E6E6"/>
<path d="M69.436 20.0071H68.9331V20.1704H69.436V20.0071Z" fill="#E6E6E6"/>
<path d="M4.68626 17.6387H4.18341V17.802H4.68626V17.6387Z" fill="#E6E6E6"/>
<path d="M67.9133 17.802H66.8935V17.6387H67.9133V17.802ZM65.8737 17.802H64.8539V17.6387H65.8737V17.802ZM63.8341 17.802H62.8143V17.6387H63.8341V17.802ZM61.7945 17.802H60.7747V17.6387H61.7945V17.802ZM59.7549 17.802H58.7351V17.6387H59.7549V17.802ZM57.7153 17.802H56.6955V17.6387H57.7153V17.802ZM55.6757 17.802H54.656V17.6387H55.6757V17.802ZM53.6362 17.802H52.6164V17.6387H53.6362L53.6362 17.802ZM51.5965 17.802H50.5768V17.6387H51.5965V17.802ZM49.557 17.802H48.5372V17.6387H49.557V17.802ZM47.5174 17.802H46.4976V17.6387H47.5174V17.802ZM45.4778 17.802H44.458V17.6387H45.4778V17.802ZM43.4382 17.802H42.4184V17.6387H43.4382V17.802ZM41.3986 17.802H40.3788V17.6387H41.3986V17.802ZM39.359 17.802H38.3392V17.6387H39.359V17.802ZM37.3194 17.802H36.2996V17.6387H37.3194V17.802ZM35.2798 17.802H34.26V17.6387H35.2798V17.802ZM33.2402 17.802H32.2204V17.6387H33.2402V17.802ZM31.2006 17.802H30.1808V17.6387H31.2006V17.802ZM29.161 17.802H28.1412V17.6387H29.161V17.802ZM27.1214 17.802H26.1016V17.6387H27.1214V17.802ZM25.0818 17.802H24.062V17.6387H25.0818V17.802ZM23.0422 17.802H22.0224V17.6387H23.0422V17.802ZM21.0026 17.802H19.9828V17.6387H21.0026L21.0026 17.802ZM18.963 17.802H17.9432V17.6387H18.963V17.802ZM16.9234 17.802H15.9036V17.6387H16.9234V17.802ZM14.8838 17.802H13.864V17.6387H14.8838V17.802ZM12.8442 17.802H11.8244V17.6387H12.8442V17.802ZM10.8046 17.802H9.78481V17.6387H10.8046V17.802ZM8.765 17.802H7.74524V17.6387H8.765V17.802ZM6.72543 17.802H5.70563V17.6387H6.72543V17.802Z" fill="#E6E6E6"/>
<path d="M69.436 17.6387H68.9331V17.802H69.436V17.6387Z" fill="#E6E6E6"/>
<path d="M4.68626 16.0054H4.18341V16.1687H4.68626V16.0054Z" fill="#E6E6E6"/>
<path d="M67.9133 16.1687H66.8935V16.0054H67.9133V16.1687ZM65.8737 16.1687H64.8539V16.0054H65.8737V16.1687ZM63.8341 16.1687H62.8143V16.0054H63.8341V16.1687ZM61.7945 16.1687H60.7747V16.0054H61.7945V16.1687ZM59.7549 16.1687H58.7351V16.0054H59.7549V16.1687ZM57.7153 16.1687H56.6955V16.0054H57.7153V16.1687ZM55.6757 16.1687H54.656V16.0054H55.6757V16.1687ZM53.6362 16.1687H52.6164V16.0054H53.6362L53.6362 16.1687ZM51.5965 16.1687H50.5768V16.0054H51.5965V16.1687ZM49.557 16.1687H48.5372V16.0054H49.557V16.1687ZM47.5174 16.1687H46.4976V16.0054H47.5174V16.1687ZM45.4778 16.1687H44.458V16.0054H45.4778V16.1687ZM43.4382 16.1687H42.4184V16.0054H43.4382V16.1687ZM41.3986 16.1687H40.3788V16.0054H41.3986V16.1687ZM39.359 16.1687H38.3392V16.0054H39.359V16.1687ZM37.3194 16.1687H36.2996V16.0054H37.3194V16.1687ZM35.2798 16.1687H34.26V16.0054H35.2798V16.1687ZM33.2402 16.1687H32.2204V16.0054H33.2402V16.1687ZM31.2006 16.1687H30.1808V16.0054H31.2006V16.1687ZM29.161 16.1687H28.1412V16.0054H29.161V16.1687ZM27.1214 16.1687H26.1016V16.0054H27.1214V16.1687ZM25.0818 16.1687H24.062V16.0054H25.0818V16.1687ZM23.0422 16.1687H22.0224V16.0054H23.0422V16.1687ZM21.0026 16.1687H19.9828V16.0054H21.0026L21.0026 16.1687ZM18.963 16.1687H17.9432V16.0054H18.963V16.1687ZM16.9234 16.1687H15.9036V16.0054H16.9234V16.1687ZM14.8838 16.1687H13.864V16.0054H14.8838V16.1687ZM12.8442 16.1687H11.8244V16.0054H12.8442V16.1687ZM10.8046 16.1687H9.78481V16.0054H10.8046V16.1687ZM8.765 16.1687H7.74524V16.0054H8.765V16.1687ZM6.72543 16.1687H5.70563V16.0054H6.72543V16.1687Z" fill="#E6E6E6"/>
<path d="M69.436 16.0054H68.9331V16.1687H69.436V16.0054Z" fill="#E6E6E6"/>
<path d="M4.68626 12.4937H4.18341V12.657H4.68626V12.4937Z" fill="#E6E6E6"/>
<path d="M67.9133 12.657H66.8935V12.4937H67.9133V12.657ZM65.8737 12.657H64.8539V12.4937H65.8737V12.657ZM63.8341 12.657H62.8143V12.4937H63.8341V12.657ZM61.7945 12.657H60.7747V12.4937H61.7945V12.657ZM59.7549 12.657H58.7351V12.4937H59.7549V12.657ZM57.7153 12.657H56.6955V12.4937H57.7153V12.657ZM55.6757 12.657H54.656V12.4937H55.6757V12.657ZM53.6362 12.657H52.6164V12.4937H53.6362L53.6362 12.657ZM51.5965 12.657H50.5768V12.4937H51.5965V12.657ZM49.557 12.657H48.5372V12.4937H49.557V12.657ZM47.5174 12.657H46.4976V12.4937H47.5174V12.657ZM45.4778 12.657H44.458V12.4937H45.4778V12.657ZM43.4382 12.657H42.4184V12.4937H43.4382V12.657ZM41.3986 12.657H40.3788V12.4937H41.3986V12.657ZM39.359 12.657H38.3392V12.4937H39.359V12.657ZM37.3194 12.657H36.2996V12.4937H37.3194V12.657ZM35.2798 12.657H34.26V12.4937H35.2798V12.657ZM33.2402 12.657H32.2204V12.4937H33.2402V12.657ZM31.2006 12.657H30.1808V12.4937H31.2006V12.657ZM29.161 12.657H28.1412V12.4937H29.161V12.657ZM27.1214 12.657H26.1016V12.4937H27.1214V12.657ZM25.0818 12.657H24.062V12.4937H25.0818V12.657ZM23.0422 12.657H22.0224V12.4937H23.0422V12.657ZM21.0026 12.657H19.9828V12.4937H21.0026L21.0026 12.657ZM18.963 12.657H17.9432V12.4937H18.963V12.657ZM16.9234 12.657H15.9036V12.4937H16.9234V12.657ZM14.8838 12.657H13.864V12.4937H14.8838V12.657ZM12.8442 12.657H11.8244V12.4937H12.8442V12.657ZM10.8046 12.657H9.78481V12.4937H10.8046V12.657ZM8.765 12.657H7.74524V12.4937H8.765V12.657ZM6.72543 12.657H5.70563V12.4937H6.72543V12.657Z" fill="#E6E6E6"/>
<path d="M69.436 12.4937H68.9331V12.657H69.436V12.4937Z" fill="#E6E6E6"/>
<path d="M28.5091 7.7744C28.5091 8.65364 28.2418 9.51313 27.741 10.2442C27.2402 10.9752 26.5283 11.545 25.6955 11.8815C24.8627 12.218 23.9462 12.306 23.0621 12.1345C22.178 11.963 21.3659 11.5396 20.7284 10.9178C20.091 10.2961 19.6569 9.50402 19.4811 8.64168C19.3052 7.77933 19.3955 6.88549 19.7404 6.07318C20.0854 5.26087 20.6696 4.56658 21.4191 4.0781C22.1686 3.58962 23.0498 3.3289 23.9513 3.3289C24.5506 3.3263 25.1445 3.43951 25.6986 3.66199C26.2528 3.88448 26.7563 4.21184 27.1801 4.62516C27.6039 5.03848 27.9395 5.52958 28.1676 6.07011C28.3957 6.61064 28.5118 7.18988 28.5091 7.7744Z" fill="#F2F2F2"/>
<path d="M25.8153 6.71073L25.7928 6.75038C25.9935 6.26787 25.811 5.6733 25.4529 5.30947C25.0948 4.94565 24.597 4.77931 24.1069 4.71333C23.743 4.65073 23.3688 4.67909 23.0193 4.79576C22.5182 4.98402 22.1354 5.41983 21.8158 5.87319C21.6696 6.08055 21.5259 6.31696 21.5404 6.57614C21.554 6.81666 21.7003 7.02077 21.8202 7.22483C21.9401 7.42889 22.0402 7.68206 21.9542 7.90478C21.9029 8.0375 21.7945 8.13309 21.7066 8.24166C21.6187 8.35024 21.5464 8.49698 21.5889 8.63321C21.6077 8.68533 21.6401 8.73178 21.6829 8.76804C21.7256 8.80429 21.7773 8.8291 21.8329 8.84005C21.9404 8.85756 22.0504 8.85501 22.1571 8.83256L24.951 8.42083C25.1409 8.39285 25.321 8.32051 25.476 8.20996C25.631 8.09942 25.7563 7.95396 25.8411 7.78598C25.926 7.61801 25.968 7.4325 25.9635 7.24527C25.9591 7.05804 25.9082 6.87465 25.8153 6.71073Z" fill="#2F2E41"/>
<path d="M23.7372 8.40179C24.4916 8.40179 25.1032 7.80527 25.1032 7.06943C25.1032 6.33358 24.4916 5.73706 23.7372 5.73706C22.9827 5.73706 22.3712 6.33358 22.3712 7.06943C22.3712 7.80527 22.9827 8.40179 23.7372 8.40179Z" fill="#FFB9B9"/>
<path d="M27.3737 10.7097C26.584 11.586 25.4728 12.1243 24.2797 12.2084C23.0867 12.2925 21.9076 11.9157 20.997 11.1592L21.3879 10.0952C21.4763 9.90624 21.6157 9.74429 21.7912 9.62672C21.9668 9.50915 22.1718 9.4404 22.3844 9.42784L22.6331 9.41295L23.2261 8.91408C23.2261 8.91408 24.824 8.85844 24.8003 8.83179L25.7682 9.39962L25.7674 9.3957L26.1478 9.41843C26.3604 9.43094 26.5655 9.49966 26.741 9.61724C26.9166 9.73482 27.056 9.8968 27.1443 10.0858L27.3737 10.7097Z" fill="#6C63FF"/>
<path d="M25.0329 5.83286C24.9976 5.65092 24.8074 5.5677 24.6443 5.52737C24.1715 5.40971 23.6797 5.38337 23.1965 5.44983C22.8442 5.49882 22.4836 5.60686 22.2281 5.87502C22.022 6.10082 21.9052 6.3909 21.8987 6.69315C21.8883 6.87386 21.9297 7.05384 22.0183 7.21289C22.0579 7.28694 22.1166 7.34967 22.1886 7.39492C22.2605 7.44017 22.3434 7.46639 22.4289 7.471L22.4453 7.52659C22.7989 7.47102 23.136 7.3416 23.4336 7.14719C23.7311 6.95278 23.9821 6.69796 24.1694 6.40017C24.0941 6.66244 23.9442 6.89857 23.7372 7.08127C24.2002 6.90056 24.6027 6.598 24.8998 6.20731C24.9809 6.10227 25.0597 5.97129 25.0329 5.83286Z" fill="#2F2E41"/>
<path d="M62.7918 13.629C65.309 13.629 67.3495 11.6387 67.3495 9.18354C67.3495 6.72836 65.309 4.73804 62.7918 4.73804C60.2745 4.73804 58.2339 6.72836 58.2339 9.18354C58.2339 11.6387 60.2745 13.629 62.7918 13.629Z" fill="#F2F2F2"/>
<path d="M61.5408 7.51551C61.8965 7.51551 62.1849 7.23451 62.1849 6.88788C62.1849 6.54125 61.8965 6.26025 61.5408 6.26025C61.1851 6.26025 60.8967 6.54125 60.8967 6.88788C60.8967 7.23451 61.1851 7.51551 61.5408 7.51551Z" fill="#2F2E41"/>
<path d="M62.5697 9.90045C63.4701 9.90045 64.1999 9.18859 64.1999 8.31046C64.1999 7.43233 63.4701 6.72046 62.5697 6.72046C61.6694 6.72046 60.9396 7.43233 60.9396 8.31046C60.9396 9.18859 61.6694 9.90045 62.5697 9.90045Z" fill="#2F2E41"/>
<path d="M62.7047 9.90002C63.4363 9.90002 64.0294 9.32155 64.0294 8.60797C64.0294 7.89439 63.4363 7.31592 62.7047 7.31592C61.9731 7.31592 61.38 7.89439 61.38 8.60797C61.38 9.32155 61.9731 9.90002 62.7047 9.90002Z" fill="#9E616A"/>
<path d="M63.6043 7.29078C63.3722 7.15275 63.1063 7.07809 62.8345 7.07459C62.5626 7.0711 62.2948 7.1389 62.059 7.27091C61.8233 7.40292 61.6282 7.59429 61.4942 7.825C61.3602 8.05572 61.2922 8.31731 61.2973 8.58243C61.9723 8.74772 62.6815 8.87422 63.4013 8.62197L63.5713 8.21617L63.6715 8.62227C63.8907 8.70966 64.1105 8.78361 64.3303 8.62142C64.3393 8.35706 64.2769 8.09502 64.1495 7.86151C64.0221 7.628 63.8341 7.4312 63.6043 7.29078Z" fill="#2F2E41"/>
<path d="M60.941 5.18411C60.7151 5.09006 60.4667 5.05954 60.2239 5.09602C59.9811 5.1325 59.7537 5.23452 59.5672 5.39053C59.3849 5.55099 59.2461 5.75295 59.1632 5.97841C59.0803 6.20387 59.0559 6.44584 59.0921 6.68274C59.1651 7.16458 59.4654 7.57952 59.7423 7.98489C60.0191 8.39027 60.2896 8.83447 60.2892 9.32154C60.289 9.67235 60.1462 10.0088 59.892 10.257C59.6379 10.5052 59.2931 10.645 58.9335 10.6457C59.3556 10.823 59.7962 11.0037 60.2553 10.9827C60.7144 10.9617 61.1956 10.6738 61.2705 10.2315C61.3244 9.91285 61.1641 9.6021 61.0304 9.3066C60.8127 8.82509 60.6553 8.3197 60.5616 7.80141C60.517 7.55404 60.4879 7.29398 60.5706 7.05611C60.6364 6.87984 60.7586 6.72887 60.9191 6.62546C61.0796 6.52206 61.2699 6.47169 61.462 6.48179L61.6137 6.34868C61.6397 6.11044 61.5888 5.87023 61.4683 5.6615C61.3477 5.45276 61.1634 5.28589 60.941 5.18411Z" fill="#2F2E41"/>
<path d="M66.2212 12.1579C65.4316 13.0343 64.3203 13.5726 63.1273 13.6567C61.9342 13.7408 60.7552 13.3639 59.8445 12.6074L60.2355 11.5435C60.3238 11.3545 60.4632 11.1925 60.6388 11.075C60.8143 10.9574 61.0193 10.8886 61.2319 10.8761L61.4806 10.8612L62.0736 10.3623C62.0736 10.3623 63.6715 10.3067 63.6478 10.28L64.6157 10.8479L64.6149 10.8439L64.9954 10.8667C65.2079 10.8792 65.413 10.9479 65.5885 11.0655C65.7641 11.1831 65.9035 11.345 65.9918 11.534L66.2212 12.1579Z" fill="#6C63FF"/>
<path d="M54.3817 4.45338C54.3801 5.33262 54.1112 6.19165 53.6091 6.92184C53.107 7.65203 52.3941 8.22059 51.5606 8.55562C50.7272 8.89065 49.8106 8.9771 48.9268 8.80404C48.043 8.63098 47.2316 8.20618 46.5954 7.58336C45.9591 6.96055 45.5264 6.16769 45.3521 5.30504C45.1778 4.4424 45.2697 3.54871 45.6162 2.737C45.9626 1.92529 46.5481 1.23201 47.2985 0.744829C48.0489 0.257648 48.9306 -0.00155193 49.832 6.99078e-06C50.431 -0.000473438 51.0241 0.114504 51.5774 0.338332C52.1307 0.562159 52.6332 0.890423 53.056 1.30426C53.4787 1.7181 53.8135 2.20935 54.041 2.74978C54.2686 3.29021 54.3843 3.86917 54.3817 4.45338Z" fill="#F2F2F2"/>
<path d="M47.7114 2.99948C47.8999 2.41365 48.3285 1.87635 48.9212 1.67831C49.5139 1.48027 50.3818 1.78195 50.8274 2.21511C51.6425 3.00744 51.8415 5.72939 51.2814 6.58955C51.1701 6.5838 50.7857 6.57955 50.673 6.57543L50.5135 6.05699V6.57032C50.3339 6.56491 50.1529 6.56117 49.9705 6.55911C49.3588 6.55171 48.774 6.31332 48.3389 5.89405C47.9037 5.47478 47.6522 4.90729 47.6371 4.31089C47.6226 3.74034 47.6372 3.23034 47.7114 2.99948Z" fill="#2F2E41"/>
<path d="M49.7563 4.94085C50.4737 4.94085 51.0553 4.37363 51.0553 3.67392C51.0553 2.97421 50.4737 2.40698 49.7563 2.40698C49.039 2.40698 48.4574 2.97421 48.4574 3.67392C48.4574 4.37363 49.039 4.94085 49.7563 4.94085Z" fill="#9E616A"/>
<path d="M48.6353 2.56125L50.1309 1.83081C50.4367 1.9652 50.7 2.17693 50.8936 2.44404C51.0872 2.71115 51.204 3.02392 51.2319 3.3499L51.2692 3.78543L50.6429 3.62994L50.5743 3.07303L50.468 3.5865L50.1789 3.51477L50.1817 2.65017L49.8925 3.51415L48.8602 3.28283L48.6353 2.56125Z" fill="#2F2E41"/>
<path d="M53.2061 7.38742C52.4165 8.26376 51.3052 8.80208 50.1122 8.88617C48.9192 8.97027 47.7401 8.59339 46.8295 7.83691L47.2204 6.77295C47.3087 6.58397 47.4482 6.42202 47.6237 6.30445C47.7992 6.18688 48.0043 6.11813 48.2168 6.10557L48.4655 6.09068L49.0585 5.59182C49.0585 5.59182 50.6564 5.53617 50.6327 5.50952L51.6006 6.07736L51.5998 6.07344L51.9803 6.09617C52.1929 6.10867 52.3979 6.1774 52.5735 6.29497C52.749 6.41255 52.8884 6.57454 52.9767 6.76354L53.2061 7.38742Z" fill="#6C63FF"/>
<path d="M37.2941 16.079C39.8113 16.079 41.8519 14.0887 41.8519 11.6335C41.8519 9.17831 39.8113 7.18799 37.2941 7.18799C34.7769 7.18799 32.7363 9.17831 32.7363 11.6335C32.7363 14.0887 34.7769 16.079 37.2941 16.079Z" fill="#F2F2F2"/>
<path d="M37.1683 12.1843C37.9719 12.1843 38.6232 11.549 38.6232 10.7652C38.6232 9.98152 37.9719 9.34619 37.1683 9.34619C36.3648 9.34619 35.7134 9.98152 35.7134 10.7652C35.7134 11.549 36.3648 12.1843 37.1683 12.1843Z" fill="#FFB6B6"/>
<path d="M40.7135 14.6079C39.9239 15.4842 38.8126 16.0225 37.6196 16.1066C36.4266 16.1907 35.2475 15.8138 34.3369 15.0574L34.7278 13.9934C34.8161 13.8044 34.9555 13.6425 35.1311 13.5249C35.3066 13.4073 35.5117 13.3386 35.7242 13.326L35.9729 13.3111L36.5659 12.8123C36.5659 12.8123 38.1638 12.7566 38.1401 12.73L39.108 13.2978L39.1072 13.2939L39.4877 13.3166C39.7002 13.3291 39.9053 13.3979 40.0809 13.5154C40.2564 13.633 40.3958 13.795 40.4841 13.984L40.7135 14.6079Z" fill="#6C63FF"/>
<path d="M38.7028 9.88514C38.5798 9.45594 38.3005 9.08526 37.9172 8.84268C37.6118 8.65213 37.2306 8.55485 36.8846 8.65562C36.5385 8.75639 36.2521 9.08762 36.2747 9.4455C36.2106 9.42907 36.1431 9.43047 36.0797 9.44955C36.0164 9.46862 35.9598 9.50461 35.9164 9.55344C35.8295 9.65341 35.7692 9.77262 35.7405 9.90063C35.6295 10.3019 35.6369 10.7255 35.7618 11.1229L35.7549 11.1799C35.9237 11.1527 36.0518 11.0114 36.1314 10.8609C36.211 10.7103 36.2569 10.5433 36.3432 10.3965C36.4295 10.2497 36.5728 10.1187 36.7438 10.1141L36.7287 10.369C36.8758 10.2951 37.0229 10.2211 37.17 10.1472C37.135 10.2289 37.1 10.3105 37.065 10.3921C37.1935 10.3398 37.3219 10.2874 37.4504 10.235C37.436 10.3135 37.4217 10.392 37.4073 10.4705C37.441 10.4024 37.4885 10.3416 37.547 10.2919C37.6054 10.2422 37.6736 10.2045 37.7474 10.1813C37.8212 10.158 37.8991 10.1496 37.9763 10.1565C38.0535 10.1634 38.1285 10.1856 38.1967 10.2216C38.3503 10.3224 38.4611 10.4743 38.5082 10.649C38.5549 10.8232 38.5799 11.0023 38.5828 11.1824C38.7813 10.7781 38.8239 10.3176 38.7028 9.88514Z" fill="#2F2E41"/>
<path d="M10.9075 18.1C13.4247 18.1 15.4653 16.1097 15.4653 13.6545C15.4653 11.1993 13.4247 9.20898 10.9075 9.20898C8.39033 9.20898 6.34973 11.1993 6.34973 13.6545C6.34973 16.1097 8.39033 18.1 10.9075 18.1Z" fill="#F2F2F2"/>
<path d="M10.8072 14.1155C11.5708 14.1155 12.1899 13.5117 12.1899 12.7669C12.1899 12.022 11.5708 11.4182 10.8072 11.4182C10.0435 11.4182 9.42444 12.022 9.42444 12.7669C9.42444 13.5117 10.0435 14.1155 10.8072 14.1155Z" fill="#9E616A"/>
<path d="M14.2682 16.5896C13.4786 17.4659 12.3673 18.0042 11.1743 18.0883C9.98124 18.1724 8.80215 17.7955 7.89154 17.0391L8.28248 15.9751C8.37082 15.7861 8.51024 15.6242 8.68577 15.5066C8.86131 15.389 9.06634 15.3203 9.27889 15.3077L9.5276 15.2928L10.1206 14.794C10.1206 14.794 11.7185 14.7383 11.6948 14.7117L12.6627 15.2795L12.6619 15.2756L13.0424 15.2983C13.2549 15.3108 13.46 15.3795 13.6355 15.4971C13.8111 15.6147 13.9505 15.7767 14.0388 15.9657L14.2682 16.5896Z" fill="#6C63FF"/>
<path d="M9.55165 13.3917C9.54883 13.3839 9.54627 13.376 9.54349 13.3682C9.53798 13.373 9.53271 13.378 9.52673 13.3826L9.55165 13.3917Z" fill="#2F2E41"/>
<path d="M12.4635 12.2873C12.4564 12.1504 12.4197 12.0166 12.3557 11.8946C12.2917 11.7726 12.202 11.6652 12.0923 11.5796C12.0051 11.5264 11.9282 11.4586 11.8652 11.3793C11.8347 11.3186 11.809 11.2559 11.788 11.1916C11.6819 10.9451 11.3793 10.8142 11.108 10.8515C10.973 10.8765 10.8447 10.9278 10.7305 11.0023C10.6163 11.0768 10.5188 11.173 10.4436 11.2851C10.3657 11.2487 10.2787 11.2348 10.1929 11.2451C10.1071 11.2554 10.0262 11.2895 9.95962 11.3433C9.89308 11.3971 9.84374 11.4684 9.81744 11.5486C9.79114 11.6289 9.78898 11.7149 9.81121 11.7964C9.67069 11.6859 9.44338 11.7743 9.35566 11.9281C9.26794 12.0819 9.28187 12.2701 9.30794 12.4443C9.35519 12.759 9.43389 13.0685 9.54293 13.3683C9.67976 13.2508 9.67135 13.0368 9.65463 12.8559C9.63725 12.6679 9.64766 12.4384 9.81617 12.3457C9.97897 12.2561 10.1766 12.3545 10.3561 12.4053C10.498 12.4445 10.647 12.4533 10.7927 12.4309C10.9384 12.4086 11.0774 12.3557 11.2001 12.2758C11.2885 12.2073 11.3812 12.1443 11.4777 12.0872C11.5265 12.0592 11.5818 12.0439 11.6384 12.0429C11.695 12.0419 11.7509 12.0553 11.8006 12.0816C11.8794 12.1478 11.9322 12.2385 11.9504 12.3383C12.0195 12.5669 12.0886 12.7955 12.1577 13.0241C12.2592 12.9293 12.3389 12.8147 12.3916 12.6876C12.4443 12.5606 12.4688 12.4242 12.4635 12.2873Z" fill="#2F2E41"/>
<path d="M10.9231 21.5215H10.4876V33.9596H10.9231V21.5215Z" fill="#3F3D56"/>
<path d="M23.9484 15.7124H23.5129V33.9595H23.9484V15.7124Z" fill="#3F3D56"/>
<path d="M37.0006 19.5315H36.5651V33.9595H37.0006V19.5315Z" fill="#3F3D56"/>
<path d="M50.0528 12.5298H49.6173V33.9596H50.0528V12.5298Z" fill="#3F3D56"/>
<path d="M63.1049 17.4097H62.6694V33.9594H63.1049V17.4097Z" fill="#3F3D56"/>
<path d="M23.7573 17.3029C24.4924 17.3029 25.0882 16.7217 25.0882 16.0047C25.0882 15.2877 24.4924 14.7065 23.7573 14.7065C23.0222 14.7065 22.4263 15.2877 22.4263 16.0047C22.4263 16.7217 23.0222 17.3029 23.7573 17.3029Z" fill="#6C63FF"/>
<path d="M49.8617 13.9081C50.5967 13.9081 51.1926 13.3269 51.1926 12.6099C51.1926 11.893 50.5967 11.3118 49.8617 11.3118C49.1266 11.3118 48.5307 11.893 48.5307 12.6099C48.5307 13.3269 49.1266 13.9081 49.8617 13.9081Z" fill="#6C63FF"/>
<path d="M36.8095 20.91C37.5445 20.91 38.1404 20.3288 38.1404 19.6119C38.1404 18.8949 37.5445 18.3137 36.8095 18.3137C36.0744 18.3137 35.4785 18.8949 35.4785 19.6119C35.4785 20.3288 36.0744 20.91 36.8095 20.91Z" fill="#6C63FF"/>
<path d="M10.7052 22.8195C11.4402 22.8195 12.0361 22.2383 12.0361 21.5213C12.0361 20.8044 11.4402 20.2231 10.7052 20.2231C9.9701 20.2231 9.37421 20.8044 9.37421 21.5213C9.37421 22.2383 9.9701 22.8195 10.7052 22.8195Z" fill="#6C63FF"/>
<path d="M62.9138 18.5761C63.6489 18.5761 64.2448 17.9949 64.2448 17.2779C64.2448 16.5609 63.6489 15.9797 62.9138 15.9797C62.1788 15.9797 61.5829 16.5609 61.5829 17.2779C61.5829 17.9949 62.1788 18.5761 62.9138 18.5761Z" fill="#6C63FF"/>
<path d="M72.25 33.8313H1.59068L1.14703 34.0477C1.14704 34.105 1.17041 34.1601 1.21201 34.2006C1.25361 34.2412 1.31003 34.264 1.36886 34.264H72.25C72.3089 34.264 72.3653 34.2412 72.4069 34.2007C72.4485 34.1601 72.4719 34.105 72.4719 34.0477C72.4719 33.9903 72.4485 33.9352 72.4069 33.8947C72.3653 33.8541 72.3089 33.8313 72.25 33.8313Z" fill="#3F3D56"/>
<path d="M1.33095 35.2433C2.06602 35.2433 2.66191 34.6621 2.66191 33.9451C2.66191 33.2282 2.06602 32.647 1.33095 32.647C0.595889 32.647 0 33.2282 0 33.9451C0 34.6621 0.595889 35.2433 1.33095 35.2433Z" fill="#3F3D56"/>
<path d="M10.7087 39.0001C11.4438 39.0001 12.0397 38.4189 12.0397 37.702C12.0397 36.985 11.4438 36.4038 10.7087 36.4038C9.97363 36.4038 9.37775 36.985 9.37775 37.702C9.37775 38.4189 9.97363 39.0001 10.7087 39.0001Z" fill="#E6E6E6"/>
<path d="M23.7707 39.0001C24.5057 39.0001 25.1016 38.4189 25.1016 37.702C25.1016 36.985 24.5057 36.4038 23.7707 36.4038C23.0356 36.4038 22.4397 36.985 22.4397 37.702C22.4397 38.4189 23.0356 39.0001 23.7707 39.0001Z" fill="#E6E6E6"/>
<path d="M36.8325 39.0001C37.5676 39.0001 38.1635 38.4189 38.1635 37.702C38.1635 36.985 37.5676 36.4038 36.8325 36.4038C36.0975 36.4038 35.5016 36.985 35.5016 37.702C35.5016 38.4189 36.0975 39.0001 36.8325 39.0001Z" fill="#E6E6E6"/>
<path d="M49.8107 39.0001C50.5458 39.0001 51.1416 38.4189 51.1416 37.702C51.1416 36.985 50.5458 36.4038 49.8107 36.4038C49.0756 36.4038 48.4797 36.985 48.4797 37.702C48.4797 38.4189 49.0756 39.0001 49.8107 39.0001Z" fill="#E6E6E6"/>
<path d="M62.8726 39.0001C63.6077 39.0001 64.2036 38.4189 64.2036 37.702C64.2036 36.985 63.6077 36.4038 62.8726 36.4038C62.1376 36.4038 61.5417 36.985 61.5417 37.702C61.5417 38.4189 62.1376 39.0001 62.8726 39.0001Z" fill="#E6E6E6"/>
<path d="M72.6691 35.2433C73.4042 35.2433 74 34.6621 74 33.9451C74 33.2282 73.4042 32.647 72.6691 32.647C71.934 32.647 71.3381 33.2282 71.3381 33.9451C71.3381 34.6621 71.934 35.2433 72.6691 35.2433Z" fill="#3F3D56"/>
</g>
<defs>
<clipPath id="clip0_36_369">
<rect width="74" height="39" fill="white"/>
</clipPath>
</defs>
</svg>
