<svg width="74" height="64" viewBox="0 0 74 64" fill="none" xmlns="http://www.w3.org/2000/svg">
<g clip-path="url(#clip0_3_56)">
<path d="M63.5954 52.8811C62.3467 56.4405 60.741 59.9922 58.6839 63.3727C58.6382 63.4488 58.5921 63.5234 58.5455 63.5993L53.4528 62.0312C53.4821 61.9594 53.5141 61.8791 53.5486 61.7915C55.6027 56.6212 67.9957 25.1199 67.4394 18.909C67.4993 19.4174 69.438 36.2421 63.5954 52.8811Z" fill="#E6E6E6"/>
<path d="M59.6664 63.6752C59.5972 63.7441 59.5262 63.8124 59.4547 63.8792L55.6342 62.7029C55.6859 62.642 55.746 62.5704 55.8152 62.4894C56.9467 61.1445 60.3106 57.1178 63.5954 52.8811C67.1254 48.3281 70.5647 43.5332 71.0467 41.563C70.9499 42.011 67.9353 55.6496 59.6664 63.6752Z" fill="#E6E6E6"/>
<path d="M61.5761 11.2242C61.5747 11.2242 61.5733 11.2246 61.5719 11.2247V3.25382C61.5719 2.39085 61.2197 1.56323 60.5927 0.953022C59.9658 0.342812 59.1154 0 58.2288 0H32.5892C31.7025 0 30.8522 0.342812 30.2252 0.953022C29.5983 1.56323 29.2461 2.39085 29.2461 3.25382V7.34009C29.1753 7.34156 29.1079 7.36995 29.0584 7.41917C29.0088 7.4684 28.981 7.53454 28.981 7.60345V9.62743C28.981 9.69633 29.0088 9.76248 29.0584 9.8117C29.1079 9.86091 29.1753 9.88929 29.2461 9.89074V12.011H29.2325C29.1969 12.011 29.1616 12.0179 29.1287 12.0311C29.0958 12.0444 29.0659 12.0638 29.0407 12.0883C29.0155 12.1129 28.9956 12.1419 28.9819 12.174C28.9683 12.206 28.9613 12.2403 28.9613 12.275V16.1888C28.9613 16.2235 28.9683 16.2578 28.9819 16.2898C28.9956 16.3219 29.0155 16.351 29.0407 16.3755C29.0659 16.4 29.0958 16.4194 29.1287 16.4327C29.1616 16.446 29.1969 16.4528 29.2325 16.4528H29.2461V18.0072H29.2418C29.2062 18.0072 29.171 18.0141 29.1381 18.0273C29.1052 18.0406 29.0753 18.06 29.0501 18.0845C29.0249 18.109 29.0049 18.1381 28.9913 18.1702C28.9777 18.2022 28.9707 18.2365 28.9707 18.2712V22.2233C28.9707 22.258 28.9777 22.2923 28.9913 22.3243C29.0049 22.3563 29.0249 22.3854 29.0501 22.41C29.0753 22.4345 29.1052 22.4539 29.1381 22.4672C29.171 22.4804 29.2062 22.4873 29.2418 22.4873H29.2461V60.6895C29.2461 61.5525 29.5983 62.3801 30.2252 62.9903C30.8522 63.6005 31.7025 63.9433 32.5892 63.9433H58.2288C59.1154 63.9433 59.9658 63.6005 60.5927 62.9903C61.2197 62.3801 61.5719 61.5525 61.5719 60.6895V18.975C61.5733 18.975 61.5747 18.9754 61.5761 18.9754C61.6395 18.9754 61.7023 18.9633 61.7609 18.9397C61.8195 18.916 61.8727 18.8814 61.9176 18.8378C61.9624 18.7941 61.998 18.7423 62.0222 18.6853C62.0465 18.6283 62.059 18.5672 62.059 18.5055V11.6942C62.059 11.5696 62.0081 11.45 61.9176 11.3619C61.827 11.2737 61.7042 11.2242 61.5761 11.2242Z" fill="#3F3D56"/>
<path d="M59.5758 4.16459V59.7777C59.5755 60.4403 59.3049 61.0757 58.8234 61.5442C58.3419 62.0126 57.689 62.2758 57.0082 62.2758H33.8097C33.1289 62.2758 32.476 62.0126 31.9945 61.5442C31.5131 61.0757 31.2424 60.4403 31.2422 59.7777V4.16459C31.2422 3.50183 31.5127 2.86622 31.9942 2.39757C32.4757 1.92893 33.1288 1.66565 33.8097 1.66565H37.2811V2.10417C37.2814 2.64983 37.5042 3.17307 37.9006 3.55891C38.2971 3.94475 38.8347 4.16162 39.3953 4.16186H51.1978C51.7577 4.16065 52.2943 3.94333 52.6897 3.55757C53.0852 3.17181 53.3073 2.64912 53.3073 2.10417V1.67021H57.0082C57.6884 1.67021 58.3407 1.93286 58.8221 2.40052C59.3035 2.86818 59.5745 3.50262 59.5758 4.16459Z" fill="white"/>
<path d="M21.9575 31.2055C21.8203 31.1538 21.6731 31.132 21.5264 31.1417C21.3796 31.1513 21.2368 31.1922 21.108 31.2614C20.9792 31.3305 20.8675 31.4264 20.7809 31.5421C20.6942 31.6578 20.6347 31.7906 20.6065 31.9311L12.3397 36.3061L13.7932 37.8983L21.4704 33.1029C21.7161 33.1334 21.9648 33.0751 22.1692 32.939C22.3737 32.803 22.5198 32.5987 22.5798 32.3648C22.6399 32.1309 22.6097 31.8837 22.495 31.6701C22.3803 31.4564 22.189 31.2911 21.9575 31.2055H21.9575Z" fill="#FFB8B8"/>
<path d="M19.8492 62.6834L20.8793 62.0349L18.7995 57.8591L17.2791 58.8162L19.8492 62.6834Z" fill="#FFB8B8"/>
<path d="M23.4846 61.7152L20.2471 63.7534L19.438 62.5359L21.4714 61.2558C21.7908 61.0548 22.1791 60.9854 22.551 61.063C22.9228 61.1407 23.2478 61.3589 23.4544 61.6697L23.4846 61.7152L23.4846 61.7152Z" fill="#2F2E41"/>
<path d="M8.29089 62.8343H9.5177L10.1016 58.2286H8.29089V62.8343Z" fill="#FFB8B8"/>
<path d="M11.8838 63.943H8.02804V62.4931H10.4498C10.6381 62.4931 10.8246 62.5292 10.9985 62.5993C11.1725 62.6694 11.3306 62.7722 11.4638 62.9019C11.5969 63.0315 11.7026 63.1853 11.7746 63.3547C11.8467 63.524 11.8838 63.7055 11.8838 63.8888V63.943Z" fill="#2F2E41"/>
<path d="M36.438 9.02506H33.9089C33.8468 9.02506 33.7872 9.00105 33.7433 8.9583C33.6994 8.91556 33.6747 8.85759 33.6747 8.79714C33.6747 8.73669 33.6994 8.67871 33.7433 8.63597C33.7872 8.59323 33.8468 8.56921 33.9089 8.56921H36.438C36.5001 8.56921 36.5596 8.59323 36.6036 8.63597C36.6475 8.67871 36.6722 8.73669 36.6722 8.79714C36.6722 8.85759 36.6475 8.91556 36.6036 8.9583C36.5596 9.00105 36.5001 9.02506 36.438 9.02506Z" fill="#3F3D56"/>
<path d="M36.438 9.66318H33.9089C33.8468 9.66318 33.7872 9.63917 33.7433 9.59642C33.6994 9.55368 33.6747 9.49571 33.6747 9.43526C33.6747 9.37481 33.6994 9.31684 33.7433 9.27409C33.7872 9.23135 33.8468 9.20734 33.9089 9.20734H36.438C36.5001 9.20734 36.5596 9.23135 36.6036 9.27409C36.6475 9.31684 36.6722 9.37481 36.6722 9.43526C36.6722 9.49571 36.6475 9.55368 36.6036 9.59642C36.5596 9.63917 36.5001 9.66318 36.438 9.66318Z" fill="#3F3D56"/>
<path d="M36.438 10.3014H33.9089C33.8468 10.3014 33.7872 10.2774 33.7433 10.2347C33.6994 10.1919 33.6747 10.134 33.6747 10.0735C33.6747 10.0131 33.6994 9.95508 33.7433 9.91234C33.7872 9.86959 33.8468 9.84558 33.9089 9.84558H36.438C36.5001 9.84558 36.5596 9.86959 36.6036 9.91234C36.6475 9.95508 36.6722 10.0131 36.6722 10.0735C36.6722 10.134 36.6475 10.1919 36.6036 10.2347C36.5596 10.2774 36.5001 10.3014 36.438 10.3014Z" fill="#3F3D56"/>
<path d="M56.0425 9.66777H55.9572L55.9245 9.64133C56.0321 9.51641 56.0912 9.35857 56.0912 9.19552C56.0905 9.06136 56.0489 8.93044 55.9717 8.8193C55.8945 8.70816 55.7851 8.62179 55.6575 8.57112C55.5299 8.52045 55.3897 8.50775 55.2547 8.53463C55.1196 8.56151 54.9958 8.62676 54.8989 8.72213C54.8019 8.8175 54.7362 8.9387 54.7101 9.07042C54.6839 9.20213 54.6984 9.33844 54.7519 9.46211C54.8053 9.58577 54.8952 9.69124 55.0102 9.76517C55.1252 9.8391 55.2602 9.87818 55.398 9.87746C55.5651 9.87631 55.7266 9.81898 55.8551 9.71518L55.887 9.74162V9.82549L56.4247 10.3497L56.5858 10.1929L56.0425 9.66777ZM55.398 9.66777C55.3021 9.66813 55.2081 9.64079 55.1281 9.5892C55.0481 9.53761 54.9857 9.46408 54.9486 9.37793C54.9115 9.29178 54.9015 9.19686 54.9199 9.10518C54.9383 9.0135 54.9841 8.92918 55.0517 8.86288C55.1193 8.79658 55.2056 8.75127 55.2997 8.7327C55.3937 8.71412 55.4913 8.72311 55.5801 8.75852C55.6689 8.79393 55.7449 8.85417 55.7986 8.93163C55.8522 9.00909 55.881 9.10029 55.8814 9.19369L55.8814 9.19552C55.8817 9.25717 55.8696 9.3183 55.8457 9.3754C55.8218 9.4325 55.7866 9.48446 55.7421 9.52831C55.6975 9.57217 55.6446 9.60705 55.5862 9.63098C55.5278 9.65491 55.4651 9.66741 55.4018 9.66777C55.4005 9.66777 55.3993 9.66777 55.398 9.66777H55.398Z" fill="#3F3D56"/>
<path d="M41.5904 17.4126H37.0469C36.7736 17.4126 36.5115 17.3069 36.3183 17.1188C36.125 16.9308 36.0165 16.6757 36.0165 16.4097C36.0165 16.1437 36.125 15.8887 36.3183 15.7006C36.5115 15.5125 36.7736 15.4069 37.0469 15.4069H41.5904C41.8637 15.4069 42.1258 15.5125 42.319 15.7006C42.5122 15.8887 42.6208 16.1437 42.6208 16.4097C42.6208 16.6757 42.5122 16.9308 42.319 17.1188C42.1258 17.3069 41.8637 17.4126 41.5904 17.4126Z" fill="#6C63FF"/>
<path d="M55.5 19.6006H36.5785C36.4294 19.6006 36.2865 19.543 36.1811 19.4404C36.0757 19.3378 36.0165 19.1987 36.0165 19.0536C36.0165 18.9085 36.0757 18.7694 36.1811 18.6668C36.2865 18.5642 36.4294 18.5066 36.5785 18.5066H55.5C55.6491 18.5066 55.792 18.5642 55.8974 18.6668C56.0028 18.7694 56.0621 18.9085 56.0621 19.0536C56.0621 19.1987 56.0028 19.3378 55.8974 19.4404C55.792 19.543 55.6491 19.6006 55.5 19.6006Z" fill="#E6E6E6"/>
<path d="M43.5289 21.7887H36.5785C36.4294 21.7887 36.2865 21.7311 36.1811 21.6285C36.0757 21.5259 36.0165 21.3868 36.0165 21.2417C36.0165 21.0966 36.0757 20.9575 36.1811 20.8549C36.2865 20.7523 36.4294 20.6947 36.5785 20.6947H43.5289C43.678 20.6947 43.8209 20.7523 43.9263 20.8549C44.0317 20.9575 44.0909 21.0966 44.0909 21.2417C44.0909 21.3868 44.0317 21.5259 43.9263 21.6285C43.8209 21.7311 43.678 21.7887 43.5289 21.7887Z" fill="#E6E6E6"/>
<path d="M41.5904 41.6636H37.0469C36.7736 41.6636 36.5115 41.5579 36.3183 41.3698C36.125 41.1818 36.0165 40.9267 36.0165 40.6607C36.0165 40.3947 36.125 40.1396 36.3183 39.9516C36.5115 39.7635 36.7736 39.6578 37.0469 39.6578H41.5904C41.8637 39.6578 42.1258 39.7635 42.319 39.9516C42.5122 40.1396 42.6208 40.3947 42.6208 40.6607C42.6208 40.9267 42.5122 41.1818 42.319 41.3698C42.1258 41.5579 41.8637 41.6636 41.5904 41.6636Z" fill="#6C63FF"/>
<path d="M55.5 43.8517H36.5785C36.4294 43.8517 36.2865 43.794 36.1811 43.6914C36.0757 43.5889 36.0165 43.4497 36.0165 43.3046C36.0165 43.1596 36.0757 43.0204 36.1811 42.9178C36.2865 42.8153 36.4294 42.7576 36.5785 42.7576H55.5C55.6491 42.7576 55.792 42.8153 55.8974 42.9178C56.0028 43.0204 56.0621 43.1596 56.0621 43.3046C56.0621 43.4497 56.0028 43.5889 55.8974 43.6914C55.792 43.794 55.6491 43.8517 55.5 43.8517Z" fill="#E6E6E6"/>
<path d="M43.5289 46.0397H36.5785C36.4294 46.0397 36.2865 45.9821 36.1811 45.8795C36.0757 45.7769 36.0165 45.6378 36.0165 45.4927C36.0165 45.3476 36.0757 45.2085 36.1811 45.1059C36.2865 45.0033 36.4294 44.9457 36.5785 44.9457H43.5289C43.678 44.9457 43.8209 45.0033 43.9263 45.1059C44.0317 45.2085 44.0909 45.3476 44.0909 45.4927C44.0909 45.6378 44.0317 45.7769 43.9263 45.8795C43.8209 45.9821 43.678 46.0397 43.5289 46.0397Z" fill="#E6E6E6"/>
<path d="M41.5904 52.8774H37.0469C36.7736 52.8774 36.5115 52.7717 36.3183 52.5836C36.125 52.3956 36.0165 52.1405 36.0165 51.8745C36.0165 51.6085 36.125 51.3534 36.3183 51.1654C36.5115 50.9773 36.7736 50.8716 37.0469 50.8716H41.5904C41.8637 50.8716 42.1258 50.9773 42.319 51.1654C42.5122 51.3534 42.6208 51.6085 42.6208 51.8745C42.6208 52.1405 42.5122 52.3956 42.319 52.5836C42.1258 52.7717 41.8637 52.8774 41.5904 52.8774Z" fill="#6C63FF"/>
<path d="M55.5 55.0654H36.5785C36.4294 55.0654 36.2865 55.0078 36.1811 54.9052C36.0757 54.8026 36.0165 54.6635 36.0165 54.5184C36.0165 54.3733 36.0757 54.2342 36.1811 54.1316C36.2865 54.029 36.4294 53.9714 36.5785 53.9714H55.5C55.6491 53.9714 55.792 54.029 55.8974 54.1316C56.0028 54.2342 56.0621 54.3733 56.0621 54.5184C56.0621 54.6635 56.0028 54.8026 55.8974 54.9052C55.792 55.0078 55.6491 55.0654 55.5 55.0654Z" fill="#E6E6E6"/>
<path d="M43.5289 57.2535H36.5785C36.4294 57.2535 36.2865 57.1959 36.1811 57.0933C36.0757 56.9907 36.0165 56.8516 36.0165 56.7065C36.0165 56.5614 36.0757 56.4223 36.1811 56.3197C36.2865 56.2171 36.4294 56.1595 36.5785 56.1595H43.5289C43.678 56.1595 43.8209 56.2171 43.9263 56.3197C44.0317 56.4223 44.0909 56.5614 44.0909 56.7065C44.0909 56.8516 44.0317 56.9907 43.9263 57.0933C43.8209 57.1959 43.678 57.2535 43.5289 57.2535Z" fill="#E6E6E6"/>
<path d="M58.1696 35.9655H22.0126C21.8015 35.9653 21.5992 35.8836 21.4499 35.7383C21.3006 35.593 21.2167 35.396 21.2164 35.1906V25.6178C21.2167 25.4124 21.3006 25.2154 21.4499 25.0701C21.5992 24.9248 21.8015 24.8431 22.0126 24.8429H58.1696C58.3807 24.8431 58.5831 24.9249 58.7323 25.0701C58.8816 25.2154 58.9655 25.4124 58.9658 25.6178V35.1906C58.9655 35.396 58.8816 35.593 58.7323 35.7383C58.583 35.8836 58.3807 35.9653 58.1696 35.9655Z" fill="#6C63FF"/>
<path d="M9.01408 47.3543C9.35973 49.7147 7.5294 60.1718 7.73267 60.1709L10.3611 60.1572C10.4547 59.9822 11.6612 54.3397 12.0397 53.4344C12.568 52.1781 13.1009 50.9063 13.3089 49.5643C13.5047 48.3043 13.4082 47.0207 13.2808 45.7525C13.2867 45.7148 13.2833 45.6762 13.2709 45.64C13.2585 45.6038 13.2375 45.571 13.2095 45.5443C13.1815 45.5176 13.1473 45.4977 13.1099 45.4864C13.0725 45.475 13.0328 45.4725 12.9942 45.479L9.46745 45.3021C8.74056 45.2656 8.56821 45.1107 8.67874 45.8054C8.75555 46.3241 8.93727 46.8292 9.01408 47.3543Z" fill="#2F2E41"/>
<path d="M9.70729 41.6153C8.9907 42.6181 8.23946 43.7723 8.47739 44.973C8.65817 45.8847 9.37194 46.5913 10.0454 47.2522C12.7375 49.8834 18.0459 61.4929 18.0459 61.4929C20.6076 59.8974 17.9848 61.5384 20.5844 59.8518C20.3539 59.8345 15.1187 41.5177 14.685 41.4931C12.9305 41.38 11.4168 41.2132 9.70729 41.6153Z" fill="#2F2E41"/>
<path d="M12.5416 32.07C12.1776 31.754 9.61978 30.7798 9.61978 30.7798C9.57275 30.7737 9.52503 30.7751 9.47846 30.7839C9.33289 30.8197 9.26648 30.9957 9.29757 31.1381C9.32866 31.2804 9.07357 33.6201 9.00786 34.684C8.89268 36.5409 10.0162 40.7471 10.0063 40.8757C9.9678 41.3344 9.76145 41.7644 9.42476 42.0875C9.51226 42.1932 15.0698 42.4052 15.4479 42.5304C15.5242 42.4362 15.0175 35.7645 14.9942 35.3876C14.9554 34.8154 13.0221 32.5032 12.5416 32.07Z" fill="#E6E6E6"/>
<path d="M8.5777 46.5464C8.70941 46.4827 8.82514 46.3915 8.91674 46.2795C9.00835 46.1675 9.07361 46.0373 9.10792 45.898C9.14222 45.7588 9.14475 45.6139 9.11531 45.4736C9.08588 45.3334 9.0252 45.2011 8.93754 45.0861L11.2824 32.4555L9.09425 32.4274L7.46587 44.9174C7.27715 45.0735 7.15383 45.2916 7.11927 45.5303C7.08472 45.769 7.14133 46.0118 7.27837 46.2126C7.41542 46.4134 7.62338 46.5583 7.86286 46.6198C8.10233 46.6813 8.35668 46.6552 8.5777 46.5464H8.5777Z" fill="#FFB8B8"/>
<path d="M8.55886 33.3927C8.4676 33.3992 8.37671 33.3761 8.30033 33.3271C8.17013 33.2186 9.23235 31.5584 9.44218 31.5338C10.125 31.4572 10.8276 31.4317 11.4898 31.6113C12.1521 31.7909 12.775 32.1993 13.071 32.8038C13.1946 33.0554 12.2982 34.3217 11.8907 34.1358C11.4027 33.9133 9.20144 33.4082 8.55886 33.3927Z" fill="#E6E6E6"/>
<path d="M10.969 30.6437C12.3265 30.6437 13.4269 29.5726 13.4269 28.2515C13.4269 26.9303 12.3265 25.8593 10.969 25.8593C9.61163 25.8593 8.51123 26.9303 8.51123 28.2515C8.51123 29.5726 9.61163 30.6437 10.969 30.6437Z" fill="#FFB8B8"/>
<path d="M8.55496 32.2067C8.8965 32.2415 9.24156 32.1923 9.55855 32.0638C9.87555 31.9352 10.1544 31.7314 10.3695 31.4708C10.5846 31.2103 10.7292 30.9014 10.79 30.5725C10.8507 30.2435 10.8258 29.905 10.7174 29.5878C10.6196 29.3016 10.4561 29.0393 10.3665 28.7505C10.277 28.4618 10.2745 28.1203 10.4732 27.8888C10.8619 27.4359 11.6111 27.7208 12.2103 27.6308C12.8489 27.5348 13.3387 26.9386 13.3898 26.3117C13.4409 25.6849 13.1052 25.0645 12.6055 24.666C12.1057 24.2674 11.4612 24.0712 10.8182 24.0097C9.99246 23.9307 9.15971 24.06 8.40017 24.3851C7.64063 24.7102 6.97987 25.2201 6.48153 25.8658C5.98318 26.5115 5.66403 27.2712 5.55481 28.0718C5.44559 28.8723 5.54998 29.6867 5.85792 30.4366C6.12655 31.0908 6.56534 31.7001 7.18859 32.0584C7.81184 32.4167 8.63499 32.4855 9.25616 32.1238" fill="#2F2E41"/>
<path d="M34.8715 29.219H28.5905C28.1916 29.219 27.8671 28.7691 27.8671 28.2161C27.8671 27.6631 28.1916 27.2133 28.5905 27.2133H34.8715C35.2704 27.2133 35.5949 27.6631 35.5949 28.2161C35.5949 28.7691 35.2704 29.219 34.8715 29.219Z" fill="white"/>
<path d="M51.7531 31.407H28.4291C28.28 31.407 28.1371 31.3494 28.0317 31.2468C27.9263 31.1442 27.8671 31.0051 27.8671 30.86C27.8671 30.7149 27.9263 30.5758 28.0317 30.4732C28.1371 30.3706 28.28 30.313 28.4291 30.313H51.7531C51.9022 30.313 52.0452 30.3706 52.1506 30.4732C52.256 30.5758 52.3152 30.7149 52.3152 30.86C52.3152 31.0051 52.256 31.1442 52.1506 31.2468C52.0452 31.3494 51.9022 31.407 51.7531 31.407Z" fill="#E6E6E6"/>
<path d="M39.782 33.5951H28.4291C28.28 33.5951 28.1371 33.5375 28.0317 33.4349C27.9263 33.3323 27.8671 33.1932 27.8671 33.0481C27.8671 32.903 27.9263 32.7639 28.0317 32.6613C28.1371 32.5587 28.28 32.5011 28.4291 32.5011H39.782C39.9311 32.5011 40.074 32.5587 40.1794 32.6613C40.2848 32.7639 40.344 32.903 40.344 33.0481C40.344 33.1932 40.2848 33.3323 40.1794 33.4349C40.074 33.5375 39.9311 33.5951 39.782 33.5951Z" fill="#E6E6E6"/>
<path d="M74 63.8177H0V64H74V63.8177Z" fill="#3F3D56"/>
</g>
<defs>
<clipPath id="clip0_3_56">
<rect width="74" height="64" fill="white"/>
</clipPath>
</defs>
</svg>
