<svg width="74" height="88" viewBox="0 0 74 88" fill="none" xmlns="http://www.w3.org/2000/svg">
<g clip-path="url(#clip0_3_18)">
<path d="M19.8057 26.815C19.2777 27.021 18.7385 27.1956 18.1909 27.3379C17.4675 27.5184 17.059 27.6021 16.3608 27.3247C16.3363 27.3149 16.3129 27.3053 16.2908 27.2958C14.9674 26.7196 13.836 25.7619 13.0346 24.5393C12.2331 23.3166 11.796 21.8818 11.7765 20.4094C11.773 20.3589 11.773 20.3058 11.773 20.254C11.7724 20.0044 11.784 19.755 11.808 19.5067C11.8385 19.1684 11.8914 18.8326 11.9661 18.5016L11.9592 18.5003C11.3939 17.9084 11.1763 17.0976 11.2485 16.283C11.2979 15.7307 11.4691 15.1971 11.7491 14.7223C12.0292 14.2476 12.4108 13.8442 12.8653 13.5424C13.5775 13.0839 14.3805 12.7937 15.216 12.6928C15.4404 12.6663 15.666 12.6529 15.8918 12.6526H18.0134C18.4516 12.5476 18.8968 12.4757 19.3453 12.4376H19.3488C23.6187 12.075 26.9861 14.9736 26.6721 18.5003C26.6697 18.5042 26.6662 18.5081 26.6639 18.512C26.5732 18.6635 26.4929 18.8073 26.422 18.9446C26.3533 19.0728 26.2952 19.1958 26.2452 19.3124C25.8555 20.2138 27.7073 34.1996 27.0431 34.412C26.6651 34.5324 25.1413 24.1252 25.4147 26.1042C25.759 28.5871 21.7729 26.0704 19.8057 26.815Z" fill="#2F2E41"/>
<path d="M26.2382 52.0972L32.1572 65.0092L9.388 62.6479L14.141 50.2526L26.2382 52.0972Z" fill="#FFB6B6"/>
<path d="M38.1202 77.9851C34.1608 79.3346 29.9882 79.9068 25.8215 79.6718L24.0096 76.663C24.0096 76.663 23.9338 77.7836 23.8206 79.4967C21.8371 79.2613 19.8795 78.8363 17.9734 78.2273C14.3586 77.0699 10.9702 75.2765 7.53546 73.6227C6.83976 69.3762 6.57871 62.8281 10.425 59.0161L31.1273 62.9005C31.1273 62.9005 34.4489 65.4445 33.5603 66.3556C32.6717 67.2655 32.5341 67.1246 33.1179 67.7224C33.7017 68.3202 34.9633 69.1195 34.9761 69.6422C34.9813 69.8463 36.3971 73.5477 38.1202 77.9851Z" fill="#2F2E41"/>
<path d="M22.623 27.1467L17.6214 27.504L14.3887 30.7027L13.2565 30.9096C12.2388 31.0954 11.3231 31.6571 10.683 32.4883C10.0429 33.3194 9.72288 34.3622 9.78368 35.4188C10.0166 39.4589 10.538 45.4955 11.6278 47.454C13.3177 50.4908 14.7135 49.538 13.3177 50.4908C11.9219 51.4437 10.9848 50.695 11.6278 52.2008C12.2708 53.7066 10.7587 55.6381 10.7587 55.6381L10.1568 56.2545L10.7952 56.5224L31.1383 59.2328C31.1383 59.2328 29.3793 51.1347 30.4794 49.1453C31.5794 47.156 34.2466 41.1426 31.8662 38.7897L29.5387 30.4028L25.535 29.1937L22.623 27.1467Z" fill="#6C63FF"/>
<path d="M52.9002 60.3841C52.5655 60.3732 52.2371 60.288 51.9377 60.1344C51.6383 59.9808 51.375 59.7624 51.1662 59.4944C50.9573 59.2263 50.8078 58.915 50.7279 58.582C50.6481 58.249 50.6399 57.9022 50.7038 57.5656L41.1613 50.9482L42.2999 47.7955L53.5776 55.7399C54.1229 55.8923 54.5947 56.2442 54.9036 56.7289C55.2125 57.2137 55.3369 57.7976 55.2534 58.37C55.17 58.9425 54.8843 59.4637 54.4506 59.8349C54.0169 60.2061 53.4652 60.4015 52.9002 60.3841V60.3841Z" fill="#FFB6B6"/>
<path d="M25.9473 30.0067L24.5607 30.5689L31.9576 45.3616L47.2704 56.0494L49.4777 52.2294L37.8214 41.92L33.1548 32.7557C32.498 31.466 31.3979 30.4713 30.0668 29.9636C28.7356 29.4559 27.268 29.4712 25.9473 30.0067Z" fill="#6C63FF"/>
<path d="M19.862 25.8458C22.6358 25.8458 24.8843 23.5433 24.8843 20.7031C24.8843 17.8629 22.6358 15.5605 19.862 15.5605C17.0882 15.5605 14.8397 17.8629 14.8397 20.7031C14.8397 23.5433 17.0882 25.8458 19.862 25.8458Z" fill="#FFB6B6"/>
<path d="M24.2294 18.5285C24.1456 18.5737 24.063 18.6154 23.9793 18.6571C23.8921 18.7 23.8048 18.7428 23.7164 18.7833C22.0356 19.5634 20.6666 19.6504 19.8361 18.5285C19.8134 17.9382 19.6836 17.3574 19.4534 16.8158C19.4941 17.4211 19.3383 18.0232 19.0102 18.5285H17.3376C15.615 19.6992 14.731 20.7747 15.9267 24.6182C16.0046 24.8707 16.5385 33.8415 16.6909 34.5311C14.0831 33.5068 11.8335 22.6315 11.7765 19.7659C11.773 19.7195 11.773 19.6706 11.773 19.623C11.7723 19.3934 11.784 19.164 11.8079 18.9358C11.8386 18.6242 11.8915 18.3153 11.9661 18.0115L11.9591 18.0104C11.6938 17.7506 11.4914 17.431 11.368 17.077C11.2446 16.723 11.2037 16.3444 11.2484 15.9713C11.6859 15.3848 12.2273 14.8878 12.8443 14.5064C13.4053 14.2282 13.9902 14.0033 14.5914 13.8346C14.6065 13.831 14.6193 13.8275 14.6344 13.8239C14.8182 13.7727 15.0066 13.7262 15.1951 13.6857C15.5834 13.6024 15.976 13.5415 16.371 13.5035C16.4001 13.5023 16.428 13.4999 16.4536 13.4999C16.6116 13.5 16.7667 13.5437 16.9026 13.6262C16.9037 13.6262 16.9037 13.6274 16.9061 13.6274C17.0367 13.7073 17.1449 13.8202 17.2205 13.9554C17.2961 14.0906 17.3364 14.2434 17.3376 14.3992H19.201C19.2696 14.3992 19.3383 14.4015 19.4069 14.4051C22.0019 14.5111 24.0875 15.6474 24.2212 18.2593C24.227 18.3498 24.2294 18.4379 24.2294 18.5285Z" fill="#2F2E41"/>
<path d="M13.2127 18.7352C15.04 18.7352 16.5214 17.2184 16.5214 15.3472C16.5214 13.4761 15.04 11.9592 13.2127 11.9592C11.3853 11.9592 9.90393 13.4761 9.90393 15.3472C9.90393 17.2184 11.3853 18.7352 13.2127 18.7352Z" fill="#2F2E41"/>
<path d="M17.7552 13.7801C17.3793 15.6113 15.5247 16.7064 13.7505 16.2584C12.8985 16.0433 12.1649 15.4904 11.711 14.7214C11.2571 13.9524 11.1201 13.0303 11.3302 12.1578C11.7677 10.3411 13.9209 10.8649 15.3349 9.67954C17.3351 8.00273 18.2622 11.3107 17.7552 13.7801Z" fill="#2F2E41"/>
<path d="M10.4037 64.7514C13.2236 52.9761 18.8112 42.8551 28.0648 34.9254C28.423 34.3221 29.0002 33.889 29.6698 33.7209C30.3395 33.5529 31.0469 33.6637 31.6368 34.029L53.6352 47.6866C54.2243 48.0533 54.6474 48.6443 54.8115 49.33C54.9756 50.0157 54.8674 50.74 54.5106 51.3441C50.9786 63.4268 45.6884 73.9114 36.8494 81.1701C36.4913 81.7734 35.9141 82.2065 35.2445 82.3746C34.5748 82.5426 33.8674 82.4318 33.2775 82.0665L11.2791 68.4089C10.69 68.0422 10.2669 67.4512 10.1028 66.7655C9.93868 66.0798 10.0469 65.3555 10.4037 64.7514Z" fill="#F2F2F2"/>
<path opacity="0.2" d="M14.3137 68.7198C13.7245 68.3531 13.3015 67.7621 13.1374 67.0764C12.9732 66.3907 13.0814 65.6664 13.4382 65.0623C16.2582 53.287 21.8457 43.166 31.0994 35.2363C31.3365 34.8414 31.6712 34.5176 32.0697 34.2978L31.6368 34.029C31.0469 33.6637 30.3395 33.5529 29.6698 33.7209C29.0002 33.889 28.423 34.3221 28.0648 34.9253C18.8112 42.8551 13.2237 52.9761 10.4037 64.7513C10.0469 65.3554 9.93868 66.0798 10.1028 66.7654C10.2669 67.4511 10.6899 68.0421 11.2791 68.4088L33.2774 82.0664C33.669 82.3076 34.1158 82.4386 34.5727 82.446C35.0296 82.4534 35.4803 82.337 35.8791 82.1086L14.3137 68.7198Z" fill="black"/>
<path d="M40.1121 62.1409L25.3458 53.0306C25.1112 52.8854 24.9425 52.6508 24.8766 52.3784C24.8108 52.1059 24.8533 51.8179 24.9948 51.5775C25.1362 51.337 25.3651 51.164 25.6311 51.0962C25.8971 51.0285 26.1785 51.0716 26.4135 51.2162L41.1798 60.3265C41.4138 60.472 41.582 60.7065 41.6474 60.9786C41.7129 61.2508 41.6703 61.5385 41.5291 61.7786C41.3878 62.0187 41.1593 62.1916 40.8937 62.2595C40.6281 62.3275 40.347 62.2848 40.1121 62.1409L40.1121 62.1409Z" fill="white"/>
<path d="M31.522 50.0598L28.2734 48.0555C28.038 47.9113 27.8682 47.6772 27.8013 47.4048C27.7344 47.1323 27.776 46.8439 27.9168 46.6028C28.0576 46.3617 28.2862 46.1878 28.5523 46.1194C28.8184 46.0509 29.1001 46.0934 29.3355 46.2376L29.3411 46.2411L32.5897 48.2454C32.8238 48.3908 32.992 48.6253 33.0575 48.8975C33.123 49.1697 33.0805 49.4574 32.9392 49.6976C32.7979 49.9377 32.5693 50.1107 32.3037 50.1786C32.038 50.2465 31.7569 50.2037 31.522 50.0598Z" fill="white"/>
<path d="M37.7652 66.1293L22.9989 57.0189C22.7641 56.8741 22.595 56.6397 22.5288 56.3673C22.4626 56.0949 22.5047 55.8067 22.6459 55.5661C22.7871 55.3254 23.0159 55.152 23.2819 55.084C23.5479 55.016 23.8293 55.0588 24.0645 55.2032L24.0666 55.2045L38.8329 64.3148C39.0669 64.4603 39.2351 64.6948 39.3005 64.967C39.366 65.2392 39.3234 65.5268 39.1822 65.7669C39.0409 66.007 38.8124 66.18 38.5468 66.2479C38.2812 66.3158 38.0001 66.2731 37.7652 66.1292L37.7652 66.1293Z" fill="white"/>
<path d="M41.9873 44.9631C44.3693 44.9631 46.3003 42.9859 46.3003 40.5469C46.3003 38.1079 44.3693 36.1307 41.9873 36.1307C39.6053 36.1307 37.6744 38.1079 37.6744 40.5469C37.6744 42.9859 39.6053 44.9631 41.9873 44.9631Z" fill="#3F3D56"/>
<path d="M34.5529 87.8683C39.644 87.8683 43.7712 83.6423 43.7712 78.4292C43.7712 73.2162 39.644 68.9902 34.5529 68.9902C29.4618 68.9902 25.3347 73.2162 25.3347 78.4292C25.3347 83.6423 29.4618 87.8683 34.5529 87.8683Z" fill="white"/>
<path d="M34.5529 88C32.7043 88 30.8972 87.4387 29.3601 86.3871C27.823 85.3354 26.625 83.8407 25.9176 82.0919C25.2101 80.3431 25.025 78.4187 25.3857 76.5622C25.7463 74.7056 26.6365 73.0003 27.9437 71.6618C29.2508 70.3233 30.9163 69.4118 32.7294 69.0425C34.5425 68.6732 36.4218 68.8627 38.1298 69.5871C39.8377 70.3115 41.2975 71.5382 42.3245 73.112C43.3516 74.6859 43.8998 76.5363 43.8998 78.4292C43.897 80.9667 42.9113 83.3994 41.1591 85.1936C39.4068 86.9879 37.031 87.9971 34.5529 88ZM34.5529 69.1219C32.7551 69.1219 30.9977 69.6678 29.503 70.6905C28.0082 71.7132 26.8431 73.1668 26.1551 74.8675C25.4672 76.5682 25.2872 78.4396 25.6379 80.2451C25.9886 82.0506 26.8543 83.709 28.1256 85.0106C29.3968 86.3123 31.0164 87.1987 32.7796 87.5578C34.5429 87.917 36.3705 87.7326 38.0314 87.0282C39.6923 86.3237 41.1119 85.1308 42.1107 83.6002C43.1095 82.0696 43.6426 80.2701 43.6426 78.4292C43.6399 75.9616 42.6813 73.5959 40.9773 71.851C39.2732 70.1062 36.9628 69.1247 34.5529 69.1219Z" fill="#3F3D56"/>
<path d="M33.2954 83.3418C33.1362 83.3418 32.9792 83.3039 32.8368 83.231C32.6944 83.1581 32.5706 83.0522 32.4751 82.9218L29.9602 79.4882C29.8793 79.3779 29.8204 79.2524 29.7869 79.1188C29.7534 78.9851 29.7459 78.8461 29.7649 78.7095C29.7839 78.5729 29.829 78.4415 29.8976 78.3228C29.9662 78.2041 30.057 78.1004 30.1648 78.0176C30.2726 77.9348 30.3953 77.8746 30.5258 77.8404C30.6563 77.8062 30.7921 77.7987 30.9255 77.8182C31.0589 77.8378 31.1872 77.8841 31.303 77.9545C31.4189 78.0249 31.5201 78.1179 31.6009 78.2284L33.2462 80.4745L37.472 73.9841C37.5467 73.8693 37.6427 73.7708 37.7546 73.6941C37.8665 73.6173 37.992 73.5639 38.1241 73.5369C38.2561 73.5099 38.3921 73.5097 38.5242 73.5365C38.6563 73.5632 38.782 73.6164 38.894 73.6929C39.006 73.7693 39.1023 73.8677 39.1772 73.9822C39.2521 74.0968 39.3043 74.2254 39.3307 74.3606C39.3571 74.4958 39.3573 74.635 39.3311 74.7703C39.305 74.9055 39.2531 75.0342 39.1784 75.1489L34.1486 82.8743C34.0577 83.014 33.9353 83.1293 33.7918 83.2106C33.6483 83.2919 33.4878 83.3368 33.3239 83.3415C33.3144 83.3417 33.3049 83.3418 33.2954 83.3418Z" fill="#6C63FF"/>
<path d="M64.3235 30.5965C64.6898 30.5645 64.9691 30.3269 64.9473 30.066C64.9255 29.8051 64.6109 29.6195 64.2446 29.6516C63.8782 29.6837 63.599 29.9212 63.6208 30.1821C63.6425 30.4431 63.9572 30.6286 64.3235 30.5965Z" fill="white"/>
<path d="M68.4449 29.1649C68.8112 29.1328 69.0905 28.8953 69.0687 28.6344C69.0469 28.3734 68.7323 28.1879 68.366 28.22C67.9997 28.252 67.7204 28.4896 67.7422 28.7505C67.764 29.0114 68.0786 29.1969 68.4449 29.1649Z" fill="#3F3D56"/>
<path d="M62.3698 27.3768C62.7361 27.3447 63.0154 27.1072 62.9936 26.8463C62.9718 26.5853 62.6572 26.3998 62.2909 26.4319C61.9246 26.464 61.6453 26.7015 61.6671 26.9624C61.6889 27.2233 62.0035 27.4089 62.3698 27.3768Z" fill="#FF6584"/>
<path d="M60.641 26.3393C60.7986 26.3028 60.8849 26.0851 60.8337 25.8531C60.7825 25.621 60.6132 25.4624 60.4555 25.4989C60.2979 25.5354 60.2116 25.7531 60.2628 25.9852C60.314 26.2172 60.4833 26.3758 60.641 26.3393Z" fill="#E6E6E6"/>
<path d="M59.4101 23.8206C59.5677 23.7841 59.654 23.5664 59.6028 23.3344C59.5516 23.1023 59.3823 22.9437 59.2246 22.9802C59.067 23.0167 58.9807 23.2344 59.0319 23.4665C59.0831 23.6985 59.2524 23.8571 59.4101 23.8206Z" fill="#3F3D56"/>
<path d="M65.3156 27.3577C65.4732 27.3212 65.5595 27.1035 65.5083 26.8715C65.4571 26.6394 65.2878 26.4809 65.1301 26.5173C64.9725 26.5538 64.8862 26.7715 64.9374 27.0036C64.9886 27.2356 65.1579 27.3942 65.3156 27.3577Z" fill="#E6E6E6"/>
<path d="M63.5155 28.8879C63.6731 28.8514 63.7594 28.6337 63.7082 28.4017C63.657 28.1696 63.4877 28.011 63.33 28.0475C63.1724 28.084 63.0861 28.3017 63.1373 28.5337C63.1885 28.7658 63.3578 28.9244 63.5155 28.8879Z" fill="#FF6584"/>
<path d="M66.7927 30.1343C66.9504 30.0978 67.0367 29.8801 66.9854 29.6481C66.9342 29.416 66.7649 29.2575 66.6072 29.2939C66.4496 29.3304 66.3633 29.5481 66.4145 29.7802C66.4657 30.0122 66.635 30.1708 66.7927 30.1343Z" fill="#3F3D56"/>
<path d="M47.3072 11.086C47.37 10.8322 47.132 10.5514 46.7756 10.4589C46.4193 10.3665 46.0794 10.4973 46.0166 10.7511C45.9538 11.005 46.1917 11.2858 46.5481 11.3782C46.9045 11.4707 47.2443 11.3399 47.3072 11.086Z" fill="white"/>
<path d="M42.9551 11.0573C43.0179 10.8034 42.78 10.5227 42.4236 10.4302C42.0672 10.3377 41.7274 10.4685 41.6645 10.7224C41.6017 10.9762 41.8397 11.257 42.1961 11.3495C42.5524 11.442 42.8923 11.3111 42.9551 11.0573Z" fill="#3F3D56"/>
<path d="M48.1238 14.7832C48.1866 14.5293 47.9487 14.2486 47.5923 14.1561C47.2359 14.0636 46.8961 14.1944 46.8332 14.4483C46.7704 14.7021 47.0084 14.9829 47.3648 15.0754C47.7211 15.1679 48.061 15.037 48.1238 14.7832Z" fill="#FF6584"/>
<path d="M49.1384 16.1773C49.1642 15.9409 49.0549 15.7343 48.8942 15.7159C48.7336 15.6976 48.5825 15.8743 48.5567 16.1108C48.5309 16.3472 48.6402 16.5538 48.8008 16.5722C48.9614 16.5906 49.1126 16.4138 49.1384 16.1773Z" fill="#E6E6E6"/>
<path d="M49.4963 18.9698C49.5221 18.7334 49.4128 18.5268 49.2522 18.5084C49.0915 18.49 48.9404 18.6668 48.9146 18.9033C48.8888 19.1397 48.9981 19.3463 49.1587 19.3647C49.3194 19.383 49.4705 19.2063 49.4963 18.9698Z" fill="#3F3D56"/>
<path d="M45.0468 13.6481C45.0726 13.4117 44.9633 13.2051 44.8027 13.1867C44.6421 13.1683 44.4909 13.3451 44.4651 13.5816C44.4393 13.818 44.5486 14.0246 44.7093 14.043C44.8699 14.0613 45.021 13.8846 45.0468 13.6481Z" fill="#E6E6E6"/>
<path d="M47.237 12.8056C47.2628 12.5692 47.1535 12.3626 46.9929 12.3442C46.8322 12.3258 46.6811 12.5026 46.6553 12.7391C46.6295 12.9755 46.7388 13.1821 46.8994 13.2005C47.0601 13.2188 47.2112 13.0421 47.237 12.8056Z" fill="#FF6584"/>
<path d="M44.5388 10.5294C44.5646 10.293 44.4553 10.0864 44.2947 10.068C44.1341 10.0496 43.9829 10.2264 43.9571 10.4629C43.9313 10.6993 44.0406 10.9059 44.2013 10.9243C44.3619 10.9426 44.513 10.7659 44.5388 10.5294Z" fill="#3F3D56"/>
<path d="M11.7753 64.8761C11.4466 64.7382 11.1511 64.5288 10.9092 64.2625C10.6673 63.9961 10.4848 63.6792 10.3743 63.3335C10.2638 62.9878 10.228 62.6217 10.2693 62.2604C10.3105 61.8991 10.428 61.5514 10.6134 61.2412L3.52722 51.0416L5.80053 48.341L14.1304 60.5182C14.6172 60.8767 14.9586 61.4055 15.09 62.0045C15.2213 62.6036 15.1336 63.2311 14.8433 63.7683C14.553 64.3054 14.0803 64.7149 13.5149 64.9191C12.9494 65.1233 12.3305 65.108 11.7753 64.8761H11.7753Z" fill="#FFB6B6"/>
<path d="M11.9382 32.554C11.5797 32.338 11.1577 32.2599 10.7481 32.3337C10.3384 32.4076 9.96791 32.6285 9.703 32.9569L0.128601 46.6679L9.00158 59.5719L12.4736 55.7534L7.07267 47.0629L14.2506 40.0651C14.8404 38.7419 14.9305 37.2419 14.5035 35.8547C14.0764 34.4675 13.1625 33.2915 11.9382 32.554Z" fill="#6C63FF"/>
</g>
<defs>
<clipPath id="clip0_3_18">
<rect width="74" height="88" fill="white"/>
</clipPath>
</defs>
</svg>
