<svg width="214" height="215" viewBox="0 0 214 215" fill="none" xmlns="http://www.w3.org/2000/svg">
<path d="M106.297 199.137C105.346 199.129 104.384 199.123 103.439 199.094L103.469 198.141C104.403 198.17 105.359 198.183 106.297 198.184C107.238 198.184 108.198 198.169 109.15 198.138L109.18 199.09C108.218 199.121 107.248 199.137 106.297 199.137ZM97.7108 198.734C95.8137 198.555 93.8978 198.311 92.0165 198.011L92.1668 197.071C94.0281 197.368 95.9236 197.608 97.8007 197.786L97.7108 198.734ZM114.908 198.724L114.818 197.776C116.694 197.596 118.589 197.353 120.45 197.053L120.602 197.994C118.721 198.297 116.805 198.543 114.908 198.724H114.908ZM86.3799 196.924C84.5223 196.503 82.6534 196.016 80.8251 195.475L81.0953 194.562C82.9039 195.096 84.7529 195.578 86.5907 195.995L86.3799 196.924ZM126.237 196.9L126.025 195.972C127.867 195.552 129.716 195.067 131.519 194.532L131.791 195.446C129.968 195.987 128.099 196.476 126.237 196.9H126.237ZM75.3746 193.672C73.5822 193.014 71.7889 192.289 70.0444 191.517L70.4302 190.646C72.1558 191.409 73.9298 192.127 75.7031 192.778L75.3746 193.672ZM137.238 193.635L136.909 192.741C138.671 192.092 140.439 191.375 142.163 190.61L142.55 191.481C140.807 192.254 139.02 192.979 137.238 193.635H137.238ZM64.8661 189.023C63.1793 188.143 61.4949 187.194 59.86 186.203L60.3541 185.388C61.9718 186.369 63.6381 187.308 65.307 188.179L64.8661 189.023ZM147.714 188.989L147.273 188.144C148.938 187.274 150.6 186.335 152.214 185.355L152.709 186.169C151.078 187.16 149.397 188.108 147.714 188.989H147.714ZM55.0462 183.068C53.4839 181.978 51.9356 180.822 50.4438 179.633L51.038 178.888C52.514 180.065 54.046 181.208 55.5916 182.287L55.0462 183.068ZM157.514 183.034L156.968 182.254C158.514 181.174 160.043 180.03 161.516 178.855L162.11 179.599C160.622 180.787 159.076 181.943 157.514 183.034ZM46.0705 175.911C44.6582 174.629 43.2697 173.286 41.9443 171.919L42.6283 171.256C43.9398 172.608 45.3136 173.937 46.7112 175.205L46.0705 175.911ZM166.479 175.878L165.838 175.172C167.232 173.906 168.605 172.577 169.918 171.222L170.602 171.884C169.275 173.254 167.888 174.598 166.479 175.878ZM38.0812 167.675C36.8446 166.225 35.639 164.717 34.4973 163.193L35.2602 162.622C36.3898 164.13 37.5826 165.622 38.8062 167.056L38.0812 167.675ZM174.465 167.635L173.74 167.017C174.963 165.582 176.156 164.088 177.285 162.578L178.048 163.148C176.907 164.675 175.701 166.184 174.465 167.635V167.635ZM31.2073 158.492C30.1647 156.896 29.1615 155.248 28.2253 153.593L29.0549 153.124C29.9809 154.761 30.9737 156.392 32.0053 157.971L31.2073 158.492ZM181.34 158.441L180.541 157.92C181.573 156.338 182.566 154.704 183.492 153.063L184.322 153.531C183.386 155.19 182.382 156.842 181.34 158.441ZM25.5641 148.513C24.7349 146.798 23.9516 145.036 23.2359 143.275L24.1186 142.916C24.8268 144.658 25.6018 146.402 26.4222 148.098L25.5641 148.513ZM186.984 148.439L186.126 148.025C186.946 146.326 187.722 144.577 188.431 142.827L189.314 143.184C188.597 144.954 187.814 146.722 186.984 148.439ZM21.2467 137.891C20.6439 136.081 20.0931 134.23 19.6097 132.388L20.5315 132.146C21.0096 133.968 21.5545 135.799 22.1508 137.589L21.2467 137.891ZM191.299 137.79L190.395 137.49C190.988 135.702 191.531 133.87 192.008 132.045L192.93 132.286C192.447 134.131 191.899 135.983 191.299 137.79ZM18.3312 126.793C17.9671 124.924 17.6591 123.018 17.4155 121.128L18.3605 121.006C18.6016 122.876 18.9064 124.762 19.2665 126.611L18.3312 126.793ZM194.202 126.689L193.266 126.508C193.624 124.659 193.927 122.773 194.165 120.901L195.111 121.022C194.869 122.914 194.563 124.82 194.202 126.689V126.689ZM16.8645 115.415C16.7424 113.516 16.6793 111.586 16.6772 109.678L17.6302 109.677C17.6323 111.565 17.6947 113.475 17.8156 115.354L16.8645 115.415ZM195.655 115.309L194.704 115.248C194.823 113.371 194.883 111.461 194.883 109.573L194.882 109.364H195.835L195.836 109.57C195.836 111.481 195.775 113.411 195.655 115.309ZM17.8024 104.001L16.8513 103.943C16.9694 102.04 17.1502 100.117 17.3887 98.2286L18.3342 98.3477C18.0981 100.217 17.9192 102.119 17.8024 104.001ZM194.691 103.689C194.567 101.805 194.382 99.9039 194.139 98.0374L195.084 97.9145C195.329 99.8011 195.517 101.722 195.642 103.626L194.691 103.689ZM19.2267 92.7406L18.291 92.5606C18.6504 90.6905 19.0762 88.807 19.556 86.9624L20.4782 87.202C20.0036 89.0271 19.5825 90.8904 19.2267 92.7406ZM193.226 92.4333C192.863 90.5822 192.435 88.7203 191.955 86.8991L192.876 86.6562C193.362 88.497 193.794 90.3789 194.161 92.25L193.226 92.4333ZM22.0849 81.7554L21.1799 81.4567C21.7781 79.6462 22.4439 77.8302 23.1594 76.0588L24.043 76.4156C23.3353 78.168 22.6766 79.9645 22.0849 81.7554ZM190.33 81.4584C189.731 79.67 189.067 77.8786 188.356 76.1337L189.238 75.7741C189.957 77.5378 190.629 79.3485 191.233 81.156L190.33 81.4584ZM26.3417 71.2143L25.4827 70.8011C26.3093 69.083 27.2032 67.3686 28.1392 65.7059L28.9698 66.1734C28.0436 67.8183 27.1595 69.5143 26.3417 71.2143ZM186.046 70.9544C185.226 69.2626 184.338 67.5729 183.408 65.9322L184.237 65.4623C185.177 67.1204 186.074 68.8285 186.904 70.539L186.046 70.9544ZM31.9153 61.3124L31.1163 60.7927C32.1556 59.1956 33.261 57.6103 34.4015 56.0813L35.1655 56.6507C34.0371 58.1637 32.9434 59.732 31.9153 61.3124ZM180.451 61.0882C179.42 59.5136 178.324 57.9501 177.191 56.4414L177.953 55.8696C179.098 57.3946 180.207 58.9748 181.249 60.5662L180.451 61.0882ZM38.7061 52.2075L37.9802 51.5906C39.2145 50.1388 40.512 48.7077 41.8368 47.3374L42.5222 47.9994C41.2114 49.3553 39.9276 50.7713 38.7061 52.2075ZM173.64 52.0111C172.414 50.5789 171.126 49.1671 169.812 47.8152L170.495 47.1513C171.824 48.5174 173.125 49.9443 174.364 51.3919L173.64 52.0111ZM46.5977 44.0432L45.956 43.3389C47.3662 42.0546 48.8347 40.8005 50.3205 39.6118L50.9161 40.3558C49.4459 41.5319 47.9929 42.7727 46.5977 44.0432ZM165.725 43.8704C164.327 42.6057 162.87 41.3686 161.393 40.1939L161.987 39.4481C163.479 40.6356 164.952 41.8857 166.364 43.1642L165.725 43.8704ZM55.4597 36.9514L54.9129 36.1712C56.4722 35.0786 58.0878 34.0222 59.7148 33.0313L60.2106 33.845C58.601 34.8255 57.0024 35.8706 55.4597 36.9514ZM156.836 36.7997C155.285 35.7201 153.681 34.6785 152.07 33.7036L152.563 32.8885C154.192 33.8736 155.813 34.9264 157.38 36.0177L156.836 36.7997ZM65.1485 31.0498L64.706 30.2059C66.3907 29.3224 68.1273 28.4817 69.8669 27.7073L70.2545 28.5778C68.5333 29.3438 66.8155 30.1757 65.1485 31.0498ZM147.114 30.9191C145.44 30.0482 143.716 29.2203 141.988 28.4582L142.373 27.5864C144.119 28.3566 145.862 29.1935 147.554 30.0738L147.114 30.9191ZM75.5067 26.4405L75.1759 25.5468C76.9627 24.8859 78.7949 24.2746 80.6218 23.73L80.894 24.6433C79.0867 25.1818 77.2743 25.7866 75.5068 26.4405H75.5067ZM136.712 26.3323C134.941 25.6845 133.126 25.0862 131.318 24.5544L131.587 23.6402C133.415 24.1778 135.249 24.7826 137.04 25.4377L136.712 26.3323ZM86.3859 23.1976L86.1732 22.2689C88.0273 21.8442 89.9228 21.4741 91.8071 21.1682L91.9597 22.1089C90.0954 22.4113 88.2202 22.7775 86.3859 23.1976ZM125.821 23.1282C123.984 22.7142 122.107 22.3546 120.243 22.0591L120.393 21.1179C122.276 21.4166 124.173 21.7802 126.031 22.1987L125.821 23.1282ZM97.5919 21.3796L97.4998 20.4315C99.3918 20.248 101.319 20.1226 103.227 20.0591L103.259 21.0114C101.371 21.0742 99.4639 21.1982 97.5919 21.3796ZM114.609 21.3501C112.734 21.1749 110.827 21.0577 108.94 21.0016L108.969 20.0493C110.875 20.1061 112.802 20.2245 114.697 20.4015L114.609 21.3501Z" fill="#D0CDE1"/>
<path d="M102.921 44.782C115.289 44.782 125.316 34.7572 125.316 22.391C125.316 10.0248 115.289 0 102.921 0C90.5526 0 80.5261 10.0248 80.5261 22.391C80.5261 34.7572 90.5526 44.782 102.921 44.782Z" fill="#010566"/>
<path d="M189.641 105.762C202.01 105.762 212.036 95.7369 212.036 83.3707C212.036 71.0045 202.01 60.9797 189.641 60.9797C177.273 60.9797 167.247 71.0045 167.247 83.3707C167.247 95.7369 177.273 105.762 189.641 105.762Z" fill="#010566"/>
<path d="M162.482 199.137C174.85 199.137 184.877 189.112 184.877 176.746C184.877 164.38 174.85 154.355 162.482 154.355C150.113 154.355 140.087 164.38 140.087 176.746C140.087 189.112 150.113 199.137 162.482 199.137Z" fill="#010566"/>
<path d="M54.7959 202.948C67.1642 202.948 77.1907 192.923 77.1907 180.557C77.1907 168.191 67.1642 158.166 54.7959 158.166C42.4275 158.166 32.401 168.191 32.401 180.557C32.401 192.923 42.4275 202.948 54.7959 202.948Z" fill="#010566"/>
<path d="M22.3948 105.762C34.7632 105.762 44.7897 95.7369 44.7897 83.3707C44.7897 71.0045 34.7632 60.9797 22.3948 60.9797C10.0265 60.9797 0 71.0045 0 83.3707C0 95.7369 10.0265 105.762 22.3948 105.762Z" fill="#010566"/>
<path d="M112.518 20.6057H104.707C103.996 20.6057 103.315 20.3236 102.813 19.8214C102.31 19.3193 102.028 18.6382 102.028 17.928V10.1179C102.028 10.0886 102.023 10.0596 102.011 10.0325C102 10.0054 101.984 9.98085 101.963 9.96013C101.942 9.93941 101.918 9.92297 101.891 9.91176C101.863 9.90054 101.834 9.89477 101.805 9.89478H96.6719C95.7248 9.89478 94.8165 10.2709 94.1469 10.9405C93.4772 11.6101 93.101 12.5182 93.101 13.4651V31.3167C93.101 32.2636 93.4772 33.1717 94.1469 33.8413C94.8165 34.5108 95.7248 34.887 96.6719 34.887H109.17C110.117 34.887 111.026 34.5108 111.695 33.8413C112.365 33.1717 112.741 32.2636 112.741 31.3167V20.8289C112.741 20.7996 112.735 20.7705 112.724 20.7435C112.713 20.7164 112.696 20.6918 112.676 20.6711C112.655 20.6504 112.63 20.6339 112.603 20.6227C112.576 20.6115 112.547 20.6057 112.518 20.6057ZM107.385 29.5315H98.4574C98.2206 29.5315 97.9935 29.4375 97.8261 29.2701C97.6587 29.1027 97.5646 28.8757 97.5646 28.6389C97.5646 28.4022 97.6587 28.1752 97.8261 28.0078C97.9935 27.8404 98.2206 27.7464 98.4574 27.7464H107.385C107.621 27.7464 107.849 27.8404 108.016 28.0078C108.183 28.1752 108.277 28.4022 108.277 28.6389C108.277 28.8757 108.183 29.1027 108.016 29.2701C107.849 29.4375 107.621 29.5315 107.385 29.5315ZM107.385 25.0686H98.4574C98.2206 25.0686 97.9935 24.9746 97.8261 24.8072C97.6587 24.6398 97.5646 24.4128 97.5646 24.176C97.5646 23.9393 97.6587 23.7123 97.8261 23.5449C97.9935 23.3775 98.2206 23.2835 98.4574 23.2835H107.385C107.621 23.2835 107.849 23.3775 108.016 23.5449C108.183 23.7123 108.277 23.9393 108.277 24.176C108.277 24.4128 108.183 24.6398 108.016 24.8072C107.849 24.9746 107.621 25.0686 107.385 25.0686Z" fill="white"/>
<path d="M112.028 18.631L104.004 10.6079C103.988 10.5924 103.968 10.5818 103.947 10.5776C103.925 10.5733 103.903 10.5755 103.883 10.5839C103.862 10.5923 103.845 10.6065 103.833 10.6248C103.82 10.6431 103.814 10.6646 103.814 10.6866V17.9286C103.814 18.1654 103.908 18.3924 104.075 18.5598C104.242 18.7272 104.47 18.8213 104.706 18.8213H111.949C111.971 18.8212 111.993 18.8146 112.011 18.8023C112.029 18.79 112.043 18.7727 112.052 18.7523C112.06 18.732 112.062 18.7096 112.058 18.688C112.054 18.6665 112.043 18.6466 112.028 18.631L112.028 18.631Z" fill="white"/>
<path d="M165.721 172.335C165.446 172.335 165.18 172.43 164.968 172.605C164.756 172.779 164.611 173.021 164.557 173.291C164.504 173.56 164.546 173.84 164.675 174.082C164.805 174.324 165.014 174.513 165.268 174.618C165.522 174.723 165.804 174.737 166.067 174.657C166.329 174.577 166.556 174.409 166.709 174.181C166.861 173.952 166.93 173.678 166.903 173.405C166.876 173.132 166.755 172.876 166.56 172.682C166.45 172.572 166.319 172.485 166.175 172.425C166.031 172.365 165.877 172.335 165.721 172.335Z" fill="white"/>
<path d="M172.328 167.59V167.586C172.291 167.421 172.208 167.27 172.089 167.15C171.97 167.029 171.82 166.945 171.656 166.905C170.33 166.582 168.246 166.927 165.936 167.852C163.714 168.715 161.682 170.002 159.951 171.64C159.479 172.11 159.04 172.613 158.637 173.144C157.749 173.083 156.858 173.226 156.033 173.563C153.465 174.693 152.732 177.584 152.537 178.771C152.509 178.94 152.52 179.112 152.569 179.276C152.619 179.44 152.705 179.59 152.822 179.715C152.939 179.839 153.083 179.935 153.244 179.995C153.404 180.055 153.576 180.077 153.746 180.06H153.752L156.612 179.748C156.615 179.784 156.619 179.818 156.623 179.849C156.659 180.197 156.815 180.522 157.063 180.77L158.459 182.166C158.706 182.415 159.031 182.57 159.379 182.607L159.475 182.617L159.164 185.473V185.479C159.149 185.624 159.163 185.771 159.204 185.911C159.246 186.051 159.315 186.181 159.407 186.294C159.499 186.407 159.612 186.501 159.741 186.571C159.869 186.64 160.01 186.684 160.155 186.699C160.189 186.702 160.224 186.704 160.258 186.705C160.32 186.705 160.382 186.7 160.443 186.69C161.637 186.497 164.527 185.773 165.654 183.192C165.988 182.371 166.131 181.484 166.074 180.599C166.608 180.197 167.113 179.758 167.584 179.285C169.222 177.571 170.51 175.555 171.377 173.349C172.297 171.065 172.644 168.965 172.328 167.59ZM167.568 175.365C167.202 175.73 166.737 175.979 166.23 176.081C165.723 176.182 165.198 176.13 164.72 175.933C164.242 175.735 163.834 175.4 163.547 174.971C163.259 174.541 163.106 174.036 163.106 173.519C163.105 173.003 163.258 172.497 163.545 172.068C163.832 171.638 164.24 171.303 164.718 171.105C165.195 170.907 165.72 170.855 166.227 170.955C166.734 171.056 167.2 171.304 167.566 171.67L167.568 171.672C168.058 172.154 168.336 172.811 168.341 173.499C168.346 174.186 168.078 174.847 167.595 175.337L167.568 175.365Z" fill="white"/>
<path d="M158.298 182.545C158.126 182.524 157.952 182.566 157.809 182.664C157.525 182.858 157.24 183.05 156.951 183.237C156.826 183.318 156.678 183.354 156.53 183.34C156.382 183.326 156.243 183.262 156.135 183.16C156.027 183.057 155.957 182.921 155.936 182.774C155.914 182.627 155.943 182.477 156.018 182.348L156.558 181.414C156.635 181.301 156.678 181.169 156.682 181.032C156.685 180.895 156.649 180.76 156.578 180.643C156.507 180.526 156.404 180.432 156.281 180.373C156.157 180.313 156.02 180.29 155.884 180.307C155.284 180.383 154.727 180.656 154.299 181.083C154.137 181.246 153.642 181.742 153.375 183.629C153.3 184.171 153.252 184.717 153.232 185.264C153.23 185.357 153.246 185.45 153.279 185.537C153.313 185.625 153.363 185.704 153.428 185.772C153.492 185.84 153.569 185.894 153.654 185.932C153.74 185.97 153.832 185.991 153.925 185.993C153.931 185.993 153.937 185.994 153.944 185.994H153.961C154.509 185.974 155.055 185.927 155.598 185.851C157.486 185.585 157.982 185.089 158.144 184.926C158.574 184.499 158.846 183.939 158.918 183.337C158.941 183.15 158.888 182.962 158.772 182.813C158.656 182.664 158.486 182.568 158.298 182.545Z" fill="white"/>
<path d="M47.0885 192.725H45.466C45.1432 192.725 44.8337 192.597 44.6055 192.369C44.3772 192.14 44.249 191.831 44.249 191.508V184.207C44.249 183.885 44.3772 183.575 44.6055 183.347C44.8337 183.119 45.1432 182.99 45.466 182.99H47.0885C47.4113 182.99 47.7208 183.119 47.9491 183.347C48.1773 183.575 48.3055 183.885 48.3055 184.207V191.508C48.3055 191.831 48.1773 192.14 47.9491 192.369C47.7208 192.597 47.4113 192.725 47.0885 192.725Z" fill="white"/>
<path d="M58.4467 192.724H56.8241C56.5014 192.724 56.1918 192.596 55.9636 192.368C55.7354 192.14 55.6072 191.83 55.6072 191.508V179.34C55.6072 179.018 55.7354 178.708 55.9636 178.48C56.1918 178.252 56.5014 178.124 56.8241 178.124H58.4467C58.7695 178.124 59.079 178.252 59.3072 178.48C59.5354 178.708 59.6636 179.018 59.6636 179.34V191.508C59.6636 191.83 59.5354 192.14 59.3072 192.368C59.079 192.596 58.7695 192.724 58.4467 192.724Z" fill="white"/>
<path d="M64.1258 192.724H62.5032C62.1804 192.724 61.8709 192.596 61.6427 192.368C61.4145 192.14 61.2863 191.83 61.2863 191.508V173.662C61.2863 173.34 61.4145 173.03 61.6427 172.802C61.8709 172.574 62.1804 172.446 62.5032 172.446H64.1258C64.4485 172.446 64.7581 172.574 64.9863 172.802C65.2145 173.03 65.3427 173.34 65.3427 173.662V191.508C65.3427 191.83 65.2145 192.14 64.9863 192.368C64.7581 192.596 64.4485 192.724 64.1258 192.724Z" fill="white"/>
<path d="M52.7677 192.724H51.1452C50.8224 192.724 50.5129 192.596 50.2847 192.368C50.0564 192.14 49.9282 191.83 49.9282 191.507V169.606C49.9282 169.284 50.0564 168.974 50.2847 168.746C50.5129 168.518 50.8224 168.39 51.1452 168.39H52.7677C53.0905 168.39 53.4 168.518 53.6283 168.746C53.8565 168.974 53.9847 169.284 53.9847 169.606V191.507C53.9847 191.667 53.9532 191.825 53.8921 191.973C53.8309 192.121 53.7413 192.255 53.6282 192.368C53.5152 192.481 53.3811 192.57 53.2334 192.632C53.0858 192.693 52.9275 192.724 52.7677 192.724Z" fill="white"/>
<path d="M190.714 82.7843L189.555 81.6247C189.289 81.3591 188.93 81.2095 188.554 81.2085C188.178 81.2075 187.818 81.3552 187.551 81.6194L179.491 89.0567C179.195 89.3185 179.014 89.6862 178.987 90.0804C178.979 90.2761 179.011 90.4715 179.081 90.6544C179.151 90.8372 179.259 91.0036 179.396 91.1432L181.128 92.8936L181.131 92.8967C181.398 93.1634 181.76 93.3137 182.138 93.3149H182.191C182.386 93.3039 182.578 93.2545 182.754 93.1694C182.931 93.0843 183.089 92.9652 183.219 92.819L190.709 84.7971C190.977 84.5318 191.128 84.1711 191.13 83.7944C191.131 83.4176 190.983 83.0556 190.718 82.7881L190.714 82.7843Z" fill="white"/>
<path d="M200.031 80.4412L200.017 80.4274L198.496 78.9216C198.406 78.8328 198.301 78.7625 198.184 78.7148C198.068 78.6671 197.943 78.6429 197.817 78.6437C197.613 78.6439 197.415 78.7082 197.249 78.8275C197.249 78.8084 197.252 78.7897 197.253 78.7733C197.315 78.3845 197.233 77.9865 197.022 77.6537C196.687 77.2019 196.319 76.7755 195.921 76.3778L195.918 76.3742C194.805 75.3072 193.498 74.4641 192.067 73.8909C191.32 73.584 190.519 73.4264 189.711 73.4269C188.664 73.4175 187.648 73.7736 186.836 74.4338C186.605 74.6544 186.394 74.8954 186.206 75.1539C186.117 75.2777 186.069 75.4272 186.071 75.5801C186.073 75.733 186.125 75.8812 186.218 76.0026C186.311 76.124 186.441 76.2121 186.588 76.2539C186.735 76.2957 186.891 76.2888 187.034 76.2344C187.159 76.1879 187.286 76.1489 187.415 76.1177C187.684 76.0608 187.96 76.0435 188.235 76.0666C188.803 76.1259 189.347 76.3256 189.819 76.6477C190.084 76.8705 190.294 77.1504 190.435 77.4664C190.575 77.7825 190.642 78.1262 190.63 78.4718C190.433 79.0333 190.131 79.5526 189.742 80.0025C189.638 80.1394 189.587 80.3093 189.599 80.4808C189.611 80.6522 189.685 80.8135 189.806 80.9348L191.334 82.4624C191.462 82.5911 191.635 82.6656 191.817 82.6708C191.999 82.6759 192.175 82.6112 192.311 82.4899C192.743 82.1041 193.401 81.5226 193.631 81.3801C193.827 81.2486 194.05 81.1608 194.283 81.1226C194.457 81.1055 194.632 81.1424 194.785 81.2283C194.785 81.2359 194.785 81.2435 194.782 81.2508C194.78 81.2581 194.776 81.2647 194.771 81.2704L194.69 81.3472L194.677 81.3597C194.497 81.5385 194.396 81.7813 194.396 82.0347C194.395 82.288 194.495 82.5312 194.674 82.7107L194.679 82.7154L196.2 84.2208C196.289 84.3096 196.395 84.3798 196.512 84.4274C196.628 84.4751 196.753 84.4991 196.878 84.4983C197.131 84.4987 197.374 84.3998 197.554 84.2231L200.018 81.7894C200.027 81.781 200.035 81.7721 200.043 81.7632C200.208 81.582 200.299 81.345 200.297 81.0997C200.295 80.8545 200.199 80.6192 200.031 80.4412Z" fill="white"/>
<path d="M25.9505 82.0379C25.7747 82.0379 25.6029 81.9857 25.4567 81.8881C25.3105 81.7904 25.1966 81.6516 25.1293 81.4892C25.062 81.3268 25.0444 81.1481 25.0787 80.9757C25.113 80.8032 25.1977 80.6449 25.322 80.5206L27.3602 78.4825L25.322 76.4445C25.1553 76.2779 25.0616 76.0518 25.0616 75.8161C25.0616 75.5803 25.1553 75.3543 25.322 75.1876C25.4887 75.0209 25.7148 74.9272 25.9505 74.9272C26.1863 74.9272 26.4124 75.0209 26.5791 75.1876L29.2459 77.8541C29.3284 77.9366 29.3939 78.0346 29.4386 78.1424C29.4833 78.2502 29.5063 78.3658 29.5063 78.4825C29.5063 78.5993 29.4833 78.7149 29.4386 78.8227C29.3939 78.9305 29.3284 79.0285 29.2459 79.111L26.5791 81.7775C26.4967 81.8602 26.3987 81.9258 26.2908 81.9704C26.1829 82.0151 26.0673 82.038 25.9505 82.0379Z" fill="white"/>
<path d="M11.7277 84.7042C11.6109 84.7042 11.4953 84.6812 11.3875 84.6365C11.2796 84.5918 11.1816 84.5264 11.0991 84.4438C11.0166 84.3613 10.9511 84.2633 10.9064 84.1555C10.8617 84.0476 10.8387 83.932 10.8387 83.8153V82.9265C10.8457 81.5147 11.4095 80.1627 12.4077 79.1641C13.4058 78.1656 14.7577 77.6012 16.1697 77.5935H27.7284C27.9641 77.5935 28.1902 77.6871 28.3569 77.8538C28.5236 78.0205 28.6173 78.2466 28.6173 78.4823C28.6173 78.7181 28.5236 78.9441 28.3569 79.1108C28.1902 79.2775 27.9641 79.3712 27.7284 79.3712H16.1723C15.2305 79.3768 14.329 79.7535 13.6633 80.4196C12.9976 81.0857 12.6215 81.9875 12.6166 82.9292V83.8153C12.6166 83.932 12.5936 84.0476 12.5489 84.1555C12.5043 84.2633 12.4388 84.3613 12.3562 84.4438C12.2737 84.5264 12.1757 84.5918 12.0679 84.6365C11.96 84.6812 11.8444 84.7042 11.7277 84.7042Z" fill="white"/>
<path d="M18.8392 91.8144C18.7224 91.8145 18.6068 91.7916 18.4989 91.7469C18.391 91.7023 18.2931 91.6367 18.2106 91.5541L15.5438 88.8876C15.4613 88.805 15.3958 88.7071 15.3511 88.5992C15.3064 88.4914 15.2834 88.3758 15.2834 88.2591C15.2834 88.1424 15.3064 88.0268 15.3511 87.9189C15.3958 87.8111 15.4613 87.7131 15.5438 87.6306L18.2106 84.9641C18.3774 84.7977 18.6034 84.7042 18.839 84.7043C19.0746 84.7045 19.3006 84.7981 19.4672 84.9647C19.6338 85.1313 19.7274 85.3572 19.7275 85.5927C19.7276 85.8283 19.6342 86.0543 19.4677 86.2211L17.4296 88.2591L19.4677 90.2971C19.592 90.4214 19.6767 90.5798 19.711 90.7522C19.7453 90.9246 19.7277 91.1033 19.6604 91.2657C19.5931 91.4281 19.4792 91.5669 19.333 91.6646C19.1869 91.7623 19.015 91.8144 18.8392 91.8144Z" fill="white"/>
<path d="M17.0613 89.1482C16.8255 89.1482 16.5994 89.0546 16.4327 88.8879C16.266 88.7212 16.1724 88.4951 16.1724 88.2594C16.1724 88.0237 16.266 87.7976 16.4327 87.6309C16.5994 87.4642 16.8255 87.3706 17.0613 87.3706H28.6173C29.5591 87.365 30.4607 86.9883 31.1264 86.3221C31.7921 85.656 32.1682 84.7543 32.173 83.8126V82.9264C32.173 82.6907 32.2667 82.4646 32.4334 82.2979C32.6001 82.1312 32.8262 82.0376 33.062 82.0376C33.2977 82.0376 33.5238 82.1312 33.6905 82.2979C33.8572 82.4646 33.9509 82.6907 33.9509 82.9264V83.8153C33.9439 85.2271 33.3801 86.5791 32.382 87.5776C31.3838 88.5762 30.0319 89.1406 28.62 89.1483L17.0613 89.1482Z" fill="white"/>
</svg>
